<?xml version="1.0" encoding="UTF-8"?>
<svg version="1.1" xmlns="http://www.w3.org/2000/svg" width="912" height="608">
<path d="M0 0 C300.96 0 601.92 0 912 0 C912 200.64 912 401.28 912 608 C611.04 608 310.08 608 0 608 C0 407.36 0 206.72 0 0 Z " fill="#15191E" transform="translate(0,0)"/>
<path d="M0 0 C152.46 0 304.92 0 462 0 C462 9.9 462 19.8 462 30 C309.54 30 157.08 30 0 30 C0 20.1 0 10.2 0 0 Z " fill="#A4ABEB" transform="translate(118,442)"/>
<path d="M0 0 C129.36 0 258.72 0 392 0 C392 9.9 392 19.8 392 30 C262.64 30 133.28 30 0 30 C0 20.1 0 10.2 0 0 Z " fill="#A4ABEB" transform="translate(118,136)"/>
<path d="M0 0 C78.54 0 157.08 0 238 0 C238 9.9 238 19.8 238 30 C159.46 30 80.92 30 0 30 C0 20.1 0 10.2 0 0 Z " fill="#A4ABEB" transform="translate(118,340)"/>
<path d="M0 0 C73.92 0 147.84 0 224 0 C224 9.9 224 19.8 224 30 C150.08 30 76.16 30 0 30 C0 20.1 0 10.2 0 0 Z " fill="#A4ABEB" transform="translate(118,238)"/>
<path d="M0 0 C73.92 0 147.84 0 224 0 C224 9.9 224 19.8 224 30 C150.08 30 76.16 30 0 30 C0 20.1 0 10.2 0 0 Z " fill="#A4ABEB" transform="translate(118,34)"/>
<path d="M0 0 C13.86 0 27.72 0 42 0 C42 9.9 42 19.8 42 30 C28.14 30 14.28 30 0 30 C0 20.1 0 10.2 0 0 Z " fill="#80E096" transform="translate(440,510)"/>
<path d="M0 0 C13.86 0 27.72 0 42 0 C42 9.9 42 19.8 42 30 C28.14 30 14.28 30 0 30 C0 20.1 0 10.2 0 0 Z " fill="#A4ABEB" transform="translate(132,510)"/>
<path d="M0 0 C13.86 0 27.72 0 42 0 C42 9.9 42 19.8 42 30 C28.14 30 14.28 30 0 30 C0 20.1 0 10.2 0 0 Z " fill="#80E096" transform="translate(118,374)"/>
<path d="M0 0 C9.24 0 18.48 0 28 0 C28 9.9 28 19.8 28 30 C18.76 30 9.52 30 0 30 C0 20.1 0 10.2 0 0 Z " fill="#80E096" transform="translate(118,476)"/>
<path d="M0 0 C9.24 0 18.48 0 28 0 C28 9.9 28 19.8 28 30 C18.76 30 9.52 30 0 30 C0 20.1 0 10.2 0 0 Z " fill="#80E096" transform="translate(118,170)"/>
<path d="M0 0 C9.24 0 18.48 0 28 0 C28 9.9 28 19.8 28 30 C18.76 30 9.52 30 0 30 C0 20.1 0 10.2 0 0 Z " fill="#80E096" transform="translate(118,68)"/>
<path d="M0 0 C4.62 0 9.24 0 14 0 C14 9.9 14 19.8 14 30 C9.38 30 4.76 30 0 30 C0 20.1 0 10.2 0 0 Z " fill="#80E096" transform="translate(118,272)"/>
<path d="M0 0 C2.4375 0.5625 2.4375 0.5625 4.25 2 C6.03155001 5.8443974 5.98768222 9.39792623 5.4375 13.5625 C4.3125 16.125 4.3125 16.125 2.4375 17.5625 C-0.5625 18.0625 -0.5625 18.0625 -3.5625 17.5625 C-5.4375 16.0625 -5.4375 16.0625 -6.5625 13.5625 C-7.08475812 8.86217693 -7.19380237 6.68481532 -4.875 2.5625 C-2.5625 0.5625 -2.5625 0.5625 0 0 Z " fill="#E6E6E7" transform="translate(657.5625,446.4375)"/>
<path d="M0 0 C2.4375 0.5625 2.4375 0.5625 4.25 2 C6.03155001 5.8443974 5.98768222 9.39792623 5.4375 13.5625 C4.3125 16.125 4.3125 16.125 2.4375 17.5625 C-0.5625 18.0625 -0.5625 18.0625 -3.5625 17.5625 C-5.4375 16.0625 -5.4375 16.0625 -6.5625 13.5625 C-7.08475812 8.86217693 -7.19380237 6.68481532 -4.875 2.5625 C-2.5625 0.5625 -2.5625 0.5625 0 0 Z " fill="#E6E6E7" transform="translate(615.5625,446.4375)"/>
<path d="M0 0 C2.4375 0.5625 2.4375 0.5625 4.25 2 C6.03155001 5.8443974 5.98768222 9.39792623 5.4375 13.5625 C4.3125 16.125 4.3125 16.125 2.4375 17.5625 C-0.5625 18.0625 -0.5625 18.0625 -3.5625 17.5625 C-5.4375 16.0625 -5.4375 16.0625 -6.5625 13.5625 C-7.08475812 8.86217693 -7.19380237 6.68481532 -4.875 2.5625 C-2.5625 0.5625 -2.5625 0.5625 0 0 Z " fill="#E6E6E7" transform="translate(433.5625,344.4375)"/>
<path d="M0 0 C2.4375 0.5625 2.4375 0.5625 4.25 2 C6.03155001 5.8443974 5.98768222 9.39792623 5.4375 13.5625 C4.3125 16.125 4.3125 16.125 2.4375 17.5625 C-0.5625 18.0625 -0.5625 18.0625 -3.5625 17.5625 C-5.4375 16.0625 -5.4375 16.0625 -6.5625 13.5625 C-7.08475812 8.86217693 -7.19380237 6.68481532 -4.875 2.5625 C-2.5625 0.5625 -2.5625 0.5625 0 0 Z " fill="#E6E6E7" transform="translate(195.5625,276.4375)"/>
<path d="M0 0 C2.4375 0.5625 2.4375 0.5625 4.25 2 C6.03155001 5.8443974 5.98768222 9.39792623 5.4375 13.5625 C4.3125 16.125 4.3125 16.125 2.4375 17.5625 C-0.5625 18.0625 -0.5625 18.0625 -3.5625 17.5625 C-5.4375 16.0625 -5.4375 16.0625 -6.5625 13.5625 C-7.08475812 8.86217693 -7.19380237 6.68481532 -4.875 2.5625 C-2.5625 0.5625 -2.5625 0.5625 0 0 Z " fill="#E6E6E7" transform="translate(419.5625,242.4375)"/>
<path d="M0 0 C2.4375 0.5625 2.4375 0.5625 4.25 2 C6.03155001 5.8443974 5.98768222 9.39792623 5.4375 13.5625 C4.3125 16.125 4.3125 16.125 2.4375 17.5625 C-0.5625 18.0625 -0.5625 18.0625 -3.5625 17.5625 C-5.4375 16.0625 -5.4375 16.0625 -6.5625 13.5625 C-7.08475812 8.86217693 -7.19380237 6.68481532 -4.875 2.5625 C-2.5625 0.5625 -2.5625 0.5625 0 0 Z " fill="#E6E6E7" transform="translate(587.5625,140.4375)"/>
<path d="M0 0 C2.4375 0.5625 2.4375 0.5625 4.25 2 C6.03155001 5.8443974 5.98768222 9.39792623 5.4375 13.5625 C4.3125 16.125 4.3125 16.125 2.4375 17.5625 C-0.5625 18.0625 -0.5625 18.0625 -3.5625 17.5625 C-5.4375 16.0625 -5.4375 16.0625 -6.5625 13.5625 C-7.08475812 8.86217693 -7.19380237 6.68481532 -4.875 2.5625 C-2.5625 0.5625 -2.5625 0.5625 0 0 Z " fill="#E6E6E7" transform="translate(545.5625,140.4375)"/>
<path d="M0 0 C2.4375 0.5625 2.4375 0.5625 4.25 2 C6.03155001 5.8443974 5.98768222 9.39792623 5.4375 13.5625 C4.3125 16.125 4.3125 16.125 2.4375 17.5625 C-0.5625 18.0625 -0.5625 18.0625 -3.5625 17.5625 C-5.4375 16.0625 -5.4375 16.0625 -6.5625 13.5625 C-7.08475812 8.86217693 -7.19380237 6.68481532 -4.875 2.5625 C-2.5625 0.5625 -2.5625 0.5625 0 0 Z " fill="#E6E6E7" transform="translate(419.5625,38.4375)"/>
<path d="M0 0 C2.475 0.495 2.475 0.495 5 1 C5.33 2.32 5.66 3.64 6 5 C6.66 3.35 7.32 1.7 8 0 C9.32 0 10.64 0 12 0 C12.90413673 3.83724172 13.10576898 7.37502274 13.0625 11.3125 C13.05347656 12.38113281 13.04445313 13.44976562 13.03515625 14.55078125 C13.02355469 15.35902344 13.01195312 16.16726562 13 17 C11.68 17 10.36 17 9 17 C8.67 16.01 8.34 15.02 8 14 C6.68 14 5.36 14 4 14 C3.67 14.99 3.34 15.98 3 17 C2.01 17 1.02 17 0 17 C0 11.39 0 5.78 0 0 Z " fill="#E7E7E8" transform="translate(595,5)"/>
<path d="M0 0 C3.0625 0.3125 3.0625 0.3125 5 1.4375 C6.5777372 4.22174212 5.722188 6.27793521 5.0625 9.3125 C5.3925 9.6425 5.7225 9.9725 6.0625 10.3125 C6.25 12.75 6.25 12.75 6.0625 15.3125 C4.0625 17.3125 4.0625 17.3125 2.1875 17.578125 C1.48625 17.57296875 0.785 17.5678125 0.0625 17.5625 C-0.989375 17.57023437 -0.989375 17.57023437 -2.0625 17.578125 C-3.9375 17.3125 -3.9375 17.3125 -5.9375 15.3125 C-5.5625 12.875 -5.5625 12.875 -4.9375 10.3125 C-4.9375 8.45786523 -4.97213746 6.60243212 -5.0625 4.75 C-4.86826578 0.96243271 -3.65536635 0.38886876 0 0 Z " fill="#DEDFDF" transform="translate(208.9375,378.6875)"/>
<path d="M0 0 C3.0625 0.3125 3.0625 0.3125 5 1.4375 C6.5777372 4.22174212 5.722188 6.27793521 5.0625 9.3125 C5.3925 9.6425 5.7225 9.9725 6.0625 10.3125 C6.25 12.75 6.25 12.75 6.0625 15.3125 C4.0625 17.3125 4.0625 17.3125 2.1875 17.578125 C1.48625 17.57296875 0.785 17.5678125 0.0625 17.5625 C-0.989375 17.57023437 -0.989375 17.57023437 -2.0625 17.578125 C-3.9375 17.3125 -3.9375 17.3125 -5.9375 15.3125 C-5.5625 12.875 -5.5625 12.875 -4.9375 10.3125 C-4.9375 8.45786523 -4.97213746 6.60243212 -5.0625 4.75 C-4.86826578 0.96243271 -3.65536635 0.38886876 0 0 Z " fill="#DEDFDF" transform="translate(404.9375,242.6875)"/>
<path d="M0 0 C3.0625 0.3125 3.0625 0.3125 5 1.4375 C6.5777372 4.22174212 5.722188 6.27793521 5.0625 9.3125 C5.3925 9.6425 5.7225 9.9725 6.0625 10.3125 C6.25 12.75 6.25 12.75 6.0625 15.3125 C4.0625 17.3125 4.0625 17.3125 2.1875 17.578125 C1.48625 17.57296875 0.785 17.5678125 0.0625 17.5625 C-0.989375 17.57023437 -0.989375 17.57023437 -2.0625 17.578125 C-3.9375 17.3125 -3.9375 17.3125 -5.9375 15.3125 C-5.5625 12.875 -5.5625 12.875 -4.9375 10.3125 C-4.9375 8.45786523 -4.97213746 6.60243212 -5.0625 4.75 C-4.86826578 0.96243271 -3.65536635 0.38886876 0 0 Z " fill="#DEDFDF" transform="translate(208.9375,72.6875)"/>
<path d="M0 0 C3.0625 0.3125 3.0625 0.3125 5 1.4375 C6.5777372 4.22174212 5.722188 6.27793521 5.0625 9.3125 C5.3925 9.6425 5.7225 9.9725 6.0625 10.3125 C6.25 12.75 6.25 12.75 6.0625 15.3125 C4.0625 17.3125 4.0625 17.3125 2.1875 17.578125 C1.48625 17.57296875 0.785 17.5678125 0.0625 17.5625 C-0.989375 17.57023437 -0.989375 17.57023437 -2.0625 17.578125 C-3.9375 17.3125 -3.9375 17.3125 -5.9375 15.3125 C-5.5625 12.875 -5.5625 12.875 -4.9375 10.3125 C-4.9375 8.45786523 -4.97213746 6.60243212 -5.0625 4.75 C-4.86826578 0.96243271 -3.65536635 0.38886876 0 0 Z " fill="#DEDFDF" transform="translate(404.9375,38.6875)"/>
<path d="M0 0 C7 0 7 0 10 2 C10.125 5.5625 10.125 5.5625 10 9 C10.33 9.33 10.66 9.66 11 10 C11.25 12.4375 11.25 12.4375 11 15 C8 17 8 17 0 17 C0 11.39 0 5.78 0 0 Z " fill="#B6B7B8" transform="translate(8,583)"/>
<path d="M0 0 C1.32 0 2.64 0 4 0 C4 5.94 4 11.88 4 18 C2.39125 18.061875 0.7825 18.12375 -0.875 18.1875 C-1.77992187 18.22230469 -2.68484375 18.25710938 -3.6171875 18.29296875 C-4.79667969 18.14794922 -4.79667969 18.14794922 -6 18 C-8.46324069 14.30513897 -8.38991688 12.36706908 -8 8 C-6.75 6.0625 -6.75 6.0625 -5 5 C-3.68 5 -2.36 5 -1 5 C-0.67 3.35 -0.34 1.7 0 0 Z " fill="#EEEEEE" transform="translate(57,446)"/>
<path d="M0 0 C1.32 0 2.64 0 4 0 C4 5.94 4 11.88 4 18 C2.39125 18.061875 0.7825 18.12375 -0.875 18.1875 C-1.77992188 18.22230469 -2.68484375 18.25710937 -3.6171875 18.29296875 C-4.79667969 18.14794922 -4.79667969 18.14794922 -6 18 C-8.46324069 14.30513897 -8.38991688 12.36706908 -8 8 C-6.75 6.0625 -6.75 6.0625 -5 5 C-3.68 5 -2.36 5 -1 5 C-0.67 3.35 -0.34 1.7 0 0 Z " fill="#EEEEEE" transform="translate(631,4)"/>
<path d="M0 0 C8.21766784 -0.36254417 8.21766784 -0.36254417 11.5625 1.1875 C13 3 13 3 13.4375 5.5 C13 8 13 8 11.875 9.8125 C9.22464043 11.49106106 7.06753576 11.20450238 4 11 C4 12.98 4 14.96 4 17 C2.68 17 1.36 17 0 17 C0 11.39 0 5.78 0 0 Z " fill="#E1E1E2" transform="translate(189,515)"/>
<path d="M0 0 C2.97 0 5.94 0 9 0 C11.60704898 2.60704898 11.23905333 4.47338241 11.265625 8.02734375 C11 10 11 10 9 13 C6.375 13.1875 6.375 13.1875 4 13 C4 14.65 4 16.3 4 18 C2.68 18 1.36 18 0 18 C0 12.06 0 6.12 0 0 Z " fill="#E2E3E4" transform="translate(540,9)"/>
<path d="M0 0 C2.97 0 5.94 0 9 0 C11.60704898 2.60704898 11.23905333 4.47338241 11.265625 8.02734375 C11 10 11 10 9 13 C6.375 13.1875 6.375 13.1875 4 13 C4 14.65 4 16.3 4 18 C2.68 18 1.36 18 0 18 C0 12.06 0 6.12 0 0 Z " fill="#E2E3E4" transform="translate(526,9)"/>
<path d="M0 0 C8.21766784 -0.36254417 8.21766784 -0.36254417 11.5625 1.1875 C13 3 13 3 13.4375 5.5 C13 8 13 8 11.875 9.8125 C9.22464043 11.49106106 7.06753576 11.20450238 4 11 C4 12.98 4 14.96 4 17 C2.68 17 1.36 17 0 17 C0 11.39 0 5.78 0 0 Z " fill="#E1E1E2" transform="translate(175,5)"/>
<path d="M0 0 C0.9075 0.103125 1.815 0.20625 2.75 0.3125 C2.75 1.3025 2.75 2.2925 2.75 3.3125 C1.5434375 3.745625 1.5434375 3.745625 0.3125 4.1875 C-2.3826468 5.04512568 -2.3826468 5.04512568 -3.25 7.3125 C-2.30125 7.10625 -1.3525 6.9 -0.375 6.6875 C1.171875 6.501875 1.171875 6.501875 2.75 6.3125 C4.75 8.3125 4.75 8.3125 5.0625 11.25 C4.75 14.3125 4.75 14.3125 3.625 16.1875 C0.83893958 17.85913625 -1.06988862 17.77626624 -4.25 17.3125 C-6.125 15.8125 -6.125 15.8125 -7.25 13.3125 C-7.7680512 8.65003916 -7.857419 6.43388893 -5.625 2.3125 C-3.25 0.3125 -3.25 0.3125 0 0 Z " fill="#E8E8E9" transform="translate(182.25,276.6875)"/>
<path d="M0 0 C0.9075 0.103125 1.815 0.20625 2.75 0.3125 C2.75 1.3025 2.75 2.2925 2.75 3.3125 C1.5434375 3.745625 1.5434375 3.745625 0.3125 4.1875 C-2.3826468 5.04512568 -2.3826468 5.04512568 -3.25 7.3125 C-2.30125 7.10625 -1.3525 6.9 -0.375 6.6875 C1.171875 6.501875 1.171875 6.501875 2.75 6.3125 C4.75 8.3125 4.75 8.3125 5.0625 11.25 C4.75 14.3125 4.75 14.3125 3.625 16.1875 C0.83893958 17.85913625 -1.06988862 17.77626624 -4.25 17.3125 C-6.125 15.8125 -6.125 15.8125 -7.25 13.3125 C-7.7680512 8.65003916 -7.857419 6.43388893 -5.625 2.3125 C-3.25 0.3125 -3.25 0.3125 0 0 Z " fill="#E8E8E9" transform="translate(210.25,174.6875)"/>
<path d="M0 0 C0.99 0 1.98 0 3 0 C3 1.98 3 3.96 3 6 C3.94875 5.79375 4.8975 5.5875 5.875 5.375 C7.421875 5.189375 7.421875 5.189375 9 5 C11 7 11 7 11.265625 9.09375 C11.26046875 9.8878125 11.2553125 10.681875 11.25 11.5 C11.25515625 12.2940625 11.2603125 13.088125 11.265625 13.90625 C11 16 11 16 9 18 C6.03 18 3.06 18 0 18 C0 12.06 0 6.12 0 0 Z " fill="#E9EAEA" transform="translate(50,140)"/>
<path d="M0 0 C0.9075 0.103125 1.815 0.20625 2.75 0.3125 C2.75 1.3025 2.75 2.2925 2.75 3.3125 C1.5434375 3.745625 1.5434375 3.745625 0.3125 4.1875 C-2.3826468 5.04512568 -2.3826468 5.04512568 -3.25 7.3125 C-2.30125 7.10625 -1.3525 6.9 -0.375 6.6875 C1.171875 6.501875 1.171875 6.501875 2.75 6.3125 C4.75 8.3125 4.75 8.3125 5.0625 11.25 C4.75 14.3125 4.75 14.3125 3.625 16.1875 C0.83893958 17.85913625 -1.06988862 17.77626624 -4.25 17.3125 C-6.125 15.8125 -6.125 15.8125 -7.25 13.3125 C-7.7680512 8.65003916 -7.857419 6.43388893 -5.625 2.3125 C-3.25 0.3125 -3.25 0.3125 0 0 Z " fill="#E8E8E9" transform="translate(532.25,140.6875)"/>
<path d="M0 0 C1.65 0 3.3 0 5 0 C5.67364661 2.08108685 6.33866798 4.1649671 7 6.25 C7.37125 7.41015625 7.7425 8.5703125 8.125 9.765625 C9 13 9 13 9 17 C7.68 17 6.36 17 5 17 C5 15.68 5 14.36 5 13 C3.35 13.33 1.7 13.66 0 14 C-0.33 14.99 -0.66 15.98 -1 17 C-2.32 17 -3.64 17 -5 17 C-3.96232949 10.93267948 -2.66038099 5.5626148 0 0 Z " fill="#EDEDED" transform="translate(515,5)"/>
<path d="M0 0 C9.27734375 -0.09765625 9.27734375 -0.09765625 12 0 C13 1 13 1 13.09765625 3.72265625 C13.08605469 4.82480469 13.07445312 5.92695312 13.0625 7.0625 C13.05347656 8.16722656 13.04445313 9.27195312 13.03515625 10.41015625 C13.02355469 11.26480469 13.01195312 12.11945312 13 13 C10.36 13 7.72 13 5 13 C5 9.7 5 6.4 5 3 C4.34 3 3.68 3 3 3 C3 6.3 3 9.6 3 13 C2.01 13 1.02 13 0 13 C0 8.71 0 4.42 0 0 Z " fill="#D7D7D8" transform="translate(273,519)"/>
<path d="M0 0 C9.27734375 -0.09765625 9.27734375 -0.09765625 12 0 C13 1 13 1 13.09765625 3.72265625 C13.08605469 4.82480469 13.07445312 5.92695313 13.0625 7.0625 C13.05347656 8.16722656 13.04445313 9.27195312 13.03515625 10.41015625 C13.02355469 11.26480469 13.01195312 12.11945313 13 13 C10.36 13 7.72 13 5 13 C5 9.7 5 6.4 5 3 C4.34 3 3.68 3 3 3 C3 6.3 3 9.6 3 13 C2.01 13 1.02 13 0 13 C0 8.71 0 4.42 0 0 Z " fill="#D7D7D8" transform="translate(7,349)"/>
<path d="M0 0 C9.27734375 -0.09765625 9.27734375 -0.09765625 12 0 C13 1 13 1 13.09765625 3.72265625 C13.08605469 4.82480469 13.07445312 5.92695313 13.0625 7.0625 C13.05347656 8.16722656 13.04445313 9.27195312 13.03515625 10.41015625 C13.02355469 11.26480469 13.01195312 12.11945313 13 13 C10.36 13 7.72 13 5 13 C5 9.7 5 6.4 5 3 C4.34 3 3.68 3 3 3 C3 6.3 3 9.6 3 13 C2.01 13 1.02 13 0 13 C0 8.71 0 4.42 0 0 Z " fill="#D7D7D8" transform="translate(21,247)"/>
<path d="M0 0 C9.27734375 -0.09765625 9.27734375 -0.09765625 12 0 C13 1 13 1 13.09765625 3.72265625 C13.08605469 4.82480469 13.07445312 5.92695313 13.0625 7.0625 C13.05347656 8.16722656 13.04445313 9.27195313 13.03515625 10.41015625 C13.02355469 11.26480469 13.01195312 12.11945313 13 13 C10.36 13 7.72 13 5 13 C5 9.7 5 6.4 5 3 C4.34 3 3.68 3 3 3 C3 6.3 3 9.6 3 13 C2.01 13 1.02 13 0 13 C0 8.71 0 4.42 0 0 Z " fill="#D7D7D8" transform="translate(7,145)"/>
<path d="M0 0 C9.27734375 -0.09765625 9.27734375 -0.09765625 12 0 C13 1 13 1 13.09765625 3.72265625 C13.08605469 4.82480469 13.07445312 5.92695313 13.0625 7.0625 C13.05347656 8.16722656 13.04445313 9.27195312 13.03515625 10.41015625 C13.02355469 11.26480469 13.01195312 12.11945312 13 13 C10.36 13 7.72 13 5 13 C5 9.7 5 6.4 5 3 C4.34 3 3.68 3 3 3 C3 6.3 3 9.6 3 13 C2.01 13 1.02 13 0 13 C0 8.71 0 4.42 0 0 Z " fill="#D7D7D8" transform="translate(259,9)"/>
<path d="M0 0 C1.875 1.0625 1.875 1.0625 3 3 C3.63316583 8.90954774 3.63316583 8.90954774 1.875 11.9375 C-0.88980433 13.50422245 -2.88188517 13.38976435 -6 13 C-7.875 11.9375 -7.875 11.9375 -9 10 C-9.63316583 4.09045226 -9.63316583 4.09045226 -7.875 1.0625 C-5.11019567 -0.50422245 -3.11811483 -0.38976435 0 0 Z " fill="#EEEFEF" transform="translate(618,519)"/>
<path d="M0 0 C1.875 1.0625 1.875 1.0625 3 3 C3.63316583 8.90954774 3.63316583 8.90954774 1.875 11.9375 C-0.88980433 13.50422245 -2.88188517 13.38976435 -6 13 C-7.875 11.9375 -7.875 11.9375 -9 10 C-9.63316583 4.09045226 -9.63316583 4.09045226 -7.875 1.0625 C-5.11019567 -0.50422245 -3.11811483 -0.38976435 0 0 Z " fill="#EEEFEF" transform="translate(394,519)"/>
<path d="M0 0 C1.875 1.0625 1.875 1.0625 3 3 C3.63316583 8.90954774 3.63316583 8.90954774 1.875 11.9375 C-0.88980433 13.50422245 -2.88188517 13.38976435 -6 13 C-7.875 11.9375 -7.875 11.9375 -9 10 C-9.63316583 4.09045226 -9.63316583 4.09045226 -7.875 1.0625 C-5.11019567 -0.50422245 -3.11811483 -0.38976435 0 0 Z " fill="#EEEFEF" transform="translate(254,519)"/>
<path d="M0 0 C1.875 1.0625 1.875 1.0625 3 3 C3.63316583 8.90954774 3.63316583 8.90954774 1.875 11.9375 C-0.88980433 13.50422245 -2.88188517 13.38976435 -6 13 C-7.875 11.9375 -7.875 11.9375 -9 10 C-9.63316583 4.09045226 -9.63316583 4.09045226 -7.875 1.0625 C-5.11019567 -0.50422245 -3.11811483 -0.38976435 0 0 Z " fill="#EEEFEF" transform="translate(86,451)"/>
<path d="M0 0 C1.875 1.0625 1.875 1.0625 3 3 C3.63316583 8.90954774 3.63316583 8.90954774 1.875 11.9375 C-0.88980433 13.50422245 -2.88188517 13.38976435 -6 13 C-7.875 11.9375 -7.875 11.9375 -9 10 C-9.63316583 4.09045226 -9.63316583 4.09045226 -7.875 1.0625 C-5.11019567 -0.50422245 -3.11811483 -0.38976435 0 0 Z " fill="#EEEFEF" transform="translate(86,145)"/>
<path d="M0 0 C1.875 1.0625 1.875 1.0625 3 3 C3.63316583 8.90954774 3.63316583 8.90954774 1.875 11.9375 C-0.88980433 13.50422245 -2.88188517 13.38976435 -6 13 C-7.875 11.9375 -7.875 11.9375 -9 10 C-9.63316583 4.09045226 -9.63316583 4.09045226 -7.875 1.0625 C-5.11019567 -0.50422245 -3.11811483 -0.38976435 0 0 Z " fill="#EEEFEF" transform="translate(72,145)"/>
<path d="M0 0 C1.875 1.0625 1.875 1.0625 3 3 C3.63316583 8.90954774 3.63316583 8.90954774 1.875 11.9375 C-0.88980433 13.50422245 -2.88188517 13.38976435 -6 13 C-7.875 11.9375 -7.875 11.9375 -9 10 C-9.63316583 4.09045226 -9.63316583 4.09045226 -7.875 1.0625 C-5.11019567 -0.50422245 -3.11811483 -0.38976435 0 0 Z " fill="#EEEFEF" transform="translate(618,9)"/>
<path d="M0 0 C1.875 1.0625 1.875 1.0625 3 3 C3.63316583 8.90954774 3.63316583 8.90954774 1.875 11.9375 C-0.88980433 13.50422245 -2.88188517 13.38976435 -6 13 C-7.875 11.9375 -7.875 11.9375 -9 10 C-9.63316583 4.09045226 -9.63316583 4.09045226 -7.875 1.0625 C-5.11019567 -0.50422245 -3.11811483 -0.38976435 0 0 Z " fill="#EEEFEF" transform="translate(478,9)"/>
<path d="M0 0 C1.875 1.0625 1.875 1.0625 3 3 C3.63316583 8.90954774 3.63316583 8.90954774 1.875 11.9375 C-0.88980433 13.50422245 -2.88188517 13.38976435 -6 13 C-7.875 11.9375 -7.875 11.9375 -9 10 C-9.63316583 4.09045226 -9.63316583 4.09045226 -7.875 1.0625 C-5.11019567 -0.50422245 -3.11811483 -0.38976435 0 0 Z " fill="#EEEFEF" transform="translate(240,9)"/>
<path d="M0 0 C0.66 0 1.32 0 2 0 C2 5.94 2 11.88 2 18 C-0.64 18 -3.28 18 -6 18 C-8.60704898 15.39295102 -8.23905333 13.52661759 -8.265625 9.97265625 C-8 8 -8 8 -6 5 C-3.375 4.8125 -3.375 4.8125 -1 5 C-0.67 3.35 -0.34 1.7 0 0 Z " fill="#C8C8C9" transform="translate(198,582)"/>
<path d="M0 0 C1.32 0 2.64 0 4 0 C4.33 2.64 4.66 5.28 5 8 C5.433125 7.505 5.86625 7.01 6.3125 6.5 C8 5 8 5 11 5 C10.608125 6.03125 10.21625 7.0625 9.8125 8.125 C8.85938979 12.67060255 9.56726022 14.1637565 12 18 C10.35 18 8.7 18 7 18 C6.34 16.68 5.68 15.36 5 14 C4.67 15.32 4.34 16.64 4 18 C2.68 18 1.36 18 0 18 C0 12.06 0 6.12 0 0 Z " fill="#CECED0" transform="translate(92,140)"/>
<path d="M0 0 C0.66 0.99 1.32 1.98 2 3 C-0.33317216 3.77772405 -2.61435923 4.42415568 -5 5 C-1.535 6.98 -1.535 6.98 2 9 C2.125 11.875 2.125 11.875 2 15 C0 17 0 17 -2.1640625 17.1953125 C-2.97617187 17.17210937 -3.78828125 17.14890625 -4.625 17.125 C-5.44226563 17.10695313 -6.25953125 17.08890625 -7.1015625 17.0703125 C-7.72804688 17.04710937 -8.35453125 17.02390625 -9 17 C-9 15.68 -9 14.36 -9 13 C-6.69 13.33 -4.38 13.66 -2 14 C-2.33 13.01 -2.66 12.02 -3 11 C-3.99 10.54625 -4.98 10.0925 -6 9.625 C-9 8 -9 8 -10.0625 5.5 C-10 3 -10 3 -9 1.1875 C-5.9330615 -0.63349473 -3.48037615 -0.3796774 0 0 Z " fill="#ECEDED" transform="translate(591,515)"/>
<path d="M0 0 C2.475 0.495 2.475 0.495 5 1 C5.66 4.3 6.32 7.6 7 11 C7.99 7.37 8.98 3.74 10 0 C11.32 0 12.64 0 14 0 C12.91103333 5.75762166 11.70663707 11.39247819 10 17 C8.02 17 6.04 17 4 17 C3.32844651 14.73050898 2.6626037 12.4596039 2 10.1875 C1.443125 8.29064453 1.443125 8.29064453 0.875 6.35546875 C0 3 0 3 0 0 Z " fill="#E6E6E7" transform="translate(496,515)"/>
<path d="M0 0 C0.66 0.99 1.32 1.98 2 3 C-0.33317216 3.77772405 -2.61435923 4.42415568 -5 5 C-1.535 6.98 -1.535 6.98 2 9 C2.125 11.875 2.125 11.875 2 15 C0 17 0 17 -2.1640625 17.1953125 C-2.97617187 17.17210937 -3.78828125 17.14890625 -4.625 17.125 C-5.44226563 17.10695313 -6.25953125 17.08890625 -7.1015625 17.0703125 C-7.72804688 17.04710937 -8.35453125 17.02390625 -9 17 C-9 15.68 -9 14.36 -9 13 C-6.69 13.33 -4.38 13.66 -2 14 C-2.33 13.01 -2.66 12.02 -3 11 C-3.99 10.54625 -4.98 10.0925 -6 9.625 C-9 8 -9 8 -10.0625 5.5 C-10 3 -10 3 -9 1.1875 C-5.9330615 -0.63349473 -3.48037615 -0.3796774 0 0 Z " fill="#ECEDED" transform="translate(367,515)"/>
<path d="M0 0 C2.475 0.495 2.475 0.495 5 1 C5.66 4.3 6.32 7.6 7 11 C7.99 7.37 8.98 3.74 10 0 C11.32 0 12.64 0 14 0 C12.91103333 5.75762166 11.70663707 11.39247819 10 17 C8.02 17 6.04 17 4 17 C3.32844651 14.73050898 2.6626037 12.4596039 2 10.1875 C1.443125 8.29064453 1.443125 8.29064453 0.875 6.35546875 C0 3 0 3 0 0 Z " fill="#E6E6E7" transform="translate(384,5)"/>
<path d="M0 0 C3.3 0 6.6 0 10 0 C10 0.99 10 1.98 10 3 C8.02 3 6.04 3 4 3 C4 3.99 4 4.98 4 6 C4.78375 6.12375 5.5675 6.2475 6.375 6.375 C9 7 9 7 11 9 C11.35571424 11.77457104 11.36405327 13.37896796 9.9375 15.8125 C6.97227476 17.62989611 4.39514655 17.24691975 1 17 C0.34 16.67 -0.32 16.34 -1 16 C-0.67 15.01 -0.34 14.02 0 13 C1.98 13 3.96 13 6 13 C6 12.01 6 11.02 6 10 C3.03 9.505 3.03 9.505 0 9 C0 6.03 0 3.06 0 0 Z " fill="#E5E5E6" transform="translate(190,481)"/>
<path d="M0 0 C3.3 0 6.6 0 10 0 C10 0.99 10 1.98 10 3 C8.02 3 6.04 3 4 3 C4 3.99 4 4.98 4 6 C4.78375 6.12375 5.5675 6.2475 6.375 6.375 C9 7 9 7 11 9 C11.35571424 11.77457104 11.36405327 13.37896796 9.9375 15.8125 C6.97227476 17.62989611 4.39514655 17.24691975 1 17 C0.34 16.67 -0.32 16.34 -1 16 C-0.67 15.01 -0.34 14.02 0 13 C1.98 13 3.96 13 6 13 C6 12.01 6 11.02 6 10 C3.03 9.505 3.03 9.505 0 9 C0 6.03 0 3.06 0 0 Z " fill="#E5E5E6" transform="translate(176,379)"/>
<path d="M0 0 C3.3 0 6.6 0 10 0 C10 0.99 10 1.98 10 3 C8.02 3 6.04 3 4 3 C4 3.99 4 4.98 4 6 C4.78375 6.12375 5.5675 6.2475 6.375 6.375 C9 7 9 7 11 9 C11.35571424 11.77457104 11.36405327 13.37896796 9.9375 15.8125 C6.97227476 17.62989611 4.39514655 17.24691975 1 17 C0.34 16.67 -0.32 16.34 -1 16 C-0.67 15.01 -0.34 14.02 0 13 C1.98 13 3.96 13 6 13 C6 12.01 6 11.02 6 10 C3.03 9.505 3.03 9.505 0 9 C0 6.03 0 3.06 0 0 Z " fill="#E5E5E6" transform="translate(386,345)"/>
<path d="M0 0 C3.0625 0.3125 3.0625 0.3125 4.9375 1.5 C6.41031139 3.87286279 6.28473194 5.57163944 6.0625 8.3125 C3.7525 8.6425 1.4425 8.9725 -0.9375 9.3125 C1.3725 9.9725 3.6825 10.6325 6.0625 11.3125 C4.0625 13.3125 4.0625 13.3125 0.625 13.6875 C-2.9375 13.3125 -2.9375 13.3125 -4.9375 11.75 C-6.35720326 8.28947331 -5.80051515 5.89733216 -4.9375 2.3125 C-2.9375 0.3125 -2.9375 0.3125 0 0 Z " fill="#D1D2D3" transform="translate(642.9375,518.6875)"/>
<path d="M0 0 C3.0625 0.3125 3.0625 0.3125 4.9375 1.5 C6.41031139 3.87286279 6.28473194 5.57163944 6.0625 8.3125 C3.7525 8.6425 1.4425 8.9725 -0.9375 9.3125 C1.3725 9.9725 3.6825 10.6325 6.0625 11.3125 C4.0625 13.3125 4.0625 13.3125 0.625 13.6875 C-2.9375 13.3125 -2.9375 13.3125 -4.9375 11.75 C-6.35720326 8.28947331 -5.80051515 5.89733216 -4.9375 2.3125 C-2.9375 0.3125 -2.9375 0.3125 0 0 Z " fill="#D1D2D3" transform="translate(558.9375,518.6875)"/>
<path d="M0 0 C3.0625 0.3125 3.0625 0.3125 4.9375 1.5 C6.41031139 3.87286279 6.28473194 5.57163944 6.0625 8.3125 C3.7525 8.6425 1.4425 8.9725 -0.9375 9.3125 C1.3725 9.9725 3.6825 10.6325 6.0625 11.3125 C4.0625 13.3125 4.0625 13.3125 0.625 13.6875 C-2.9375 13.3125 -2.9375 13.3125 -4.9375 11.75 C-6.35720326 8.28947331 -5.80051515 5.89733216 -4.9375 2.3125 C-2.9375 0.3125 -2.9375 0.3125 0 0 Z " fill="#D1D2D3" transform="translate(418.9375,518.6875)"/>
<path d="M0 0 C3.0625 0.3125 3.0625 0.3125 4.9375 1.5 C6.41031139 3.87286279 6.28473194 5.57163944 6.0625 8.3125 C3.7525 8.6425 1.4425 8.9725 -0.9375 9.3125 C1.3725 9.9725 3.6825 10.6325 6.0625 11.3125 C4.0625 13.3125 4.0625 13.3125 0.625 13.6875 C-2.9375 13.3125 -2.9375 13.3125 -4.9375 11.75 C-6.35720326 8.28947331 -5.80051515 5.89733216 -4.9375 2.3125 C-2.9375 0.3125 -2.9375 0.3125 0 0 Z " fill="#D1D2D3" transform="translate(334.9375,518.6875)"/>
<path d="M0 0 C3.0625 0.3125 3.0625 0.3125 4.9375 1.5 C6.41031139 3.87286279 6.28473194 5.57163944 6.0625 8.3125 C3.7525 8.6425 1.4425 8.9725 -0.9375 9.3125 C1.3725 9.9725 3.6825 10.6325 6.0625 11.3125 C4.0625 13.3125 4.0625 13.3125 0.625 13.6875 C-2.9375 13.3125 -2.9375 13.3125 -4.9375 11.75 C-6.35720326 8.28947331 -5.80051515 5.89733216 -4.9375 2.3125 C-2.9375 0.3125 -2.9375 0.3125 0 0 Z " fill="#D1D2D3" transform="translate(208.9375,518.6875)"/>
<path d="M0 0 C3.0625 0.3125 3.0625 0.3125 4.9375 1.5 C6.41031139 3.87286279 6.28473194 5.57163944 6.0625 8.3125 C3.7525 8.6425 1.4425 8.9725 -0.9375 9.3125 C1.3725 9.9725 3.6825 10.6325 6.0625 11.3125 C4.0625 13.3125 4.0625 13.3125 0.625 13.6875 C-2.9375 13.3125 -2.9375 13.3125 -4.9375 11.75 C-6.35720326 8.28947331 -5.80051515 5.89733216 -4.9375 2.3125 C-2.9375 0.3125 -2.9375 0.3125 0 0 Z " fill="#D1D2D3" transform="translate(642.9375,8.6875)"/>
<path d="M0 0 C3.0625 0.3125 3.0625 0.3125 4.9375 1.5 C6.41031139 3.87286279 6.28473194 5.57163944 6.0625 8.3125 C3.7525 8.6425 1.4425 8.9725 -0.9375 9.3125 C1.3725 9.9725 3.6825 10.6325 6.0625 11.3125 C4.0625 13.3125 4.0625 13.3125 0.625 13.6875 C-2.9375 13.3125 -2.9375 13.3125 -4.9375 11.75 C-6.35720326 8.28947331 -5.80051515 5.89733216 -4.9375 2.3125 C-2.9375 0.3125 -2.9375 0.3125 0 0 Z " fill="#D1D2D3" transform="translate(572.9375,8.6875)"/>
<path d="M0 0 C3.0625 0.3125 3.0625 0.3125 4.9375 1.5 C6.41031139 3.87286279 6.28473194 5.57163944 6.0625 8.3125 C3.7525 8.6425 1.4425 8.9725 -0.9375 9.3125 C1.3725 9.9725 3.6825 10.6325 6.0625 11.3125 C4.0625 13.3125 4.0625 13.3125 0.625 13.6875 C-2.9375 13.3125 -2.9375 13.3125 -4.9375 11.75 C-6.35720326 8.28947331 -5.80051515 5.89733216 -4.9375 2.3125 C-2.9375 0.3125 -2.9375 0.3125 0 0 Z " fill="#D1D2D3" transform="translate(446.9375,8.6875)"/>
<path d="M0 0 C3.0625 0.3125 3.0625 0.3125 4.9375 1.5 C6.41031139 3.87286279 6.28473194 5.57163944 6.0625 8.3125 C3.7525 8.6425 1.4425 8.9725 -0.9375 9.3125 C1.3725 9.9725 3.6825 10.6325 6.0625 11.3125 C4.0625 13.3125 4.0625 13.3125 0.625 13.6875 C-2.9375 13.3125 -2.9375 13.3125 -4.9375 11.75 C-6.35720326 8.28947331 -5.80051515 5.89733216 -4.9375 2.3125 C-2.9375 0.3125 -2.9375 0.3125 0 0 Z " fill="#D1D2D3" transform="translate(320.9375,8.6875)"/>
<path d="M0 0 C3.0625 0.3125 3.0625 0.3125 4.9375 1.5 C6.41031139 3.87286279 6.28473194 5.57163944 6.0625 8.3125 C3.7525 8.6425 1.4425 8.9725 -0.9375 9.3125 C1.3725 9.9725 3.6825 10.6325 6.0625 11.3125 C4.0625 13.3125 4.0625 13.3125 0.625 13.6875 C-2.9375 13.3125 -2.9375 13.3125 -4.9375 11.75 C-6.35720326 8.28947331 -5.80051515 5.89733216 -4.9375 2.3125 C-2.9375 0.3125 -2.9375 0.3125 0 0 Z " fill="#D1D2D3" transform="translate(194.9375,8.6875)"/>
<path d="M0 0 C6.0546875 -0.1953125 6.0546875 -0.1953125 8 0 C10.58926331 2.58926331 10.37398043 4.02705279 10.625 7.625 C10.69976563 8.62789062 10.77453125 9.63078125 10.8515625 10.6640625 C10.92503906 11.82035156 10.92503906 11.82035156 11 13 C9.18757948 13.02687279 7.37504767 13.04633715 5.5625 13.0625 C4.55316406 13.07410156 3.54382813 13.08570313 2.50390625 13.09765625 C0 13 0 13 -1 12 C-1.04063832 10.33382885 -1.042721 8.66611905 -1 7 C1.31 6.01 3.62 5.02 6 4 C3.03 3.505 3.03 3.505 0 3 C0 2.01 0 1.02 0 0 Z " fill="#F1F1F2" transform="translate(512,519)"/>
<path d="M0 0 C6.0546875 -0.1953125 6.0546875 -0.1953125 8 0 C10.58926331 2.58926331 10.37398043 4.02705279 10.625 7.625 C10.69976562 8.62789062 10.77453125 9.63078125 10.8515625 10.6640625 C10.92503906 11.82035156 10.92503906 11.82035156 11 13 C9.18757948 13.02687279 7.37504767 13.04633715 5.5625 13.0625 C4.55316406 13.07410156 3.54382813 13.08570313 2.50390625 13.09765625 C0 13 0 13 -1 12 C-1.04063832 10.33382885 -1.042721 8.66611905 -1 7 C1.31 6.01 3.62 5.02 6 4 C3.03 3.505 3.03 3.505 0 3 C0 2.01 0 1.02 0 0 Z " fill="#F1F1F2" transform="translate(288,519)"/>
<path d="M0 0 C6.0546875 -0.1953125 6.0546875 -0.1953125 8 0 C10.58926331 2.58926331 10.37398043 4.02705279 10.625 7.625 C10.69976562 8.62789062 10.77453125 9.63078125 10.8515625 10.6640625 C10.92503906 11.82035156 10.92503906 11.82035156 11 13 C9.18757948 13.02687279 7.37504767 13.04633715 5.5625 13.0625 C4.55316406 13.07410156 3.54382812 13.08570313 2.50390625 13.09765625 C0 13 0 13 -1 12 C-1.04063832 10.33382885 -1.042721 8.66611905 -1 7 C1.31 6.01 3.62 5.02 6 4 C3.03 3.505 3.03 3.505 0 3 C0 2.01 0 1.02 0 0 Z " fill="#F1F1F2" transform="translate(36,247)"/>
<path d="M0 0 C6.0546875 -0.1953125 6.0546875 -0.1953125 8 0 C10.58926331 2.58926331 10.37398043 4.02705279 10.625 7.625 C10.69976562 8.62789062 10.77453125 9.63078125 10.8515625 10.6640625 C10.92503906 11.82035156 10.92503906 11.82035156 11 13 C9.18757948 13.02687279 7.37504767 13.04633715 5.5625 13.0625 C4.55316406 13.07410156 3.54382813 13.08570313 2.50390625 13.09765625 C0 13 0 13 -1 12 C-1.04063832 10.33382885 -1.042721 8.66611905 -1 7 C1.31 6.01 3.62 5.02 6 4 C3.03 3.505 3.03 3.505 0 3 C0 2.01 0 1.02 0 0 Z " fill="#F1F1F2" transform="translate(22,145)"/>
<path d="M0 0 C6.0546875 -0.1953125 6.0546875 -0.1953125 8 0 C10.58926331 2.58926331 10.37398043 4.02705279 10.625 7.625 C10.69976562 8.62789062 10.77453125 9.63078125 10.8515625 10.6640625 C10.92503906 11.82035156 10.92503906 11.82035156 11 13 C9.18757948 13.02687279 7.37504767 13.04633715 5.5625 13.0625 C4.55316406 13.07410156 3.54382813 13.08570313 2.50390625 13.09765625 C0 13 0 13 -1 12 C-1.04063832 10.33382885 -1.042721 8.66611905 -1 7 C1.31 6.01 3.62 5.02 6 4 C3.03 3.505 3.03 3.505 0 3 C0 2.01 0 1.02 0 0 Z " fill="#F1F1F2" transform="translate(8,43)"/>
<path d="M0 0 C6.0546875 -0.1953125 6.0546875 -0.1953125 8 0 C10.58926331 2.58926331 10.37398043 4.02705279 10.625 7.625 C10.69976562 8.62789062 10.77453125 9.63078125 10.8515625 10.6640625 C10.92503906 11.82035156 10.92503906 11.82035156 11 13 C9.18757948 13.02687279 7.37504767 13.04633715 5.5625 13.0625 C4.55316406 13.07410156 3.54382813 13.08570313 2.50390625 13.09765625 C0 13 0 13 -1 12 C-1.04063832 10.33382885 -1.042721 8.66611905 -1 7 C1.31 6.01 3.62 5.02 6 4 C3.03 3.505 3.03 3.505 0 3 C0 2.01 0 1.02 0 0 Z " fill="#F1F1F2" transform="translate(400,9)"/>
<path d="M0 0 C6.0546875 -0.1953125 6.0546875 -0.1953125 8 0 C10.58926331 2.58926331 10.37398043 4.02705279 10.625 7.625 C10.69976562 8.62789062 10.77453125 9.63078125 10.8515625 10.6640625 C10.92503906 11.82035156 10.92503906 11.82035156 11 13 C9.18757948 13.02687279 7.37504767 13.04633715 5.5625 13.0625 C4.55316406 13.07410156 3.54382813 13.08570313 2.50390625 13.09765625 C0 13 0 13 -1 12 C-1.04063832 10.33382885 -1.042721 8.66611905 -1 7 C1.31 6.01 3.62 5.02 6 4 C3.03 3.505 3.03 3.505 0 3 C0 2.01 0 1.02 0 0 Z " fill="#F1F1F2" transform="translate(274,9)"/>
<path d="M0 0 C0.99 0 1.98 0 3 0 C3 5.61 3 11.22 3 17 C2.34 17 1.68 17 1 17 C0.67 14.36 0.34 11.72 0 9 C-0.33 10.65 -0.66 12.3 -1 14 C-1.99 14 -2.98 14 -4 14 C-4.66 11.69 -5.32 9.38 -6 7 C-6.33 10.3 -6.66 13.6 -7 17 C-7.66 17 -8.32 17 -9 17 C-9 11.72 -9 6.44 -9 1 C-7.68 1 -6.36 1 -5 1 C-4.34 3.31 -3.68 5.62 -3 8 C-2.01 5.36 -1.02 2.72 0 0 Z " fill="#BABBBC" transform="translate(170,583)"/>
<path d="M0 0 C2 2 2 2 2.265625 4.09375 C2.26046875 4.8878125 2.2553125 5.681875 2.25 6.5 C2.25515625 7.2940625 2.2603125 8.088125 2.265625 8.90625 C2 11 2 11 0 13 C-3 13.3125 -3 13.3125 -6 13 C-8.46324069 9.30513897 -8.38991688 7.36706908 -8 3 C-5.94362059 -0.35514536 -3.76397853 -0.48256135 0 0 Z " fill="#C8C8C9" transform="translate(184,587)"/>
<path d="M0 0 C3.125 0.1875 3.125 0.1875 6.125 2.1875 C5.25 6.9375 5.25 6.9375 4.125 9.1875 C5.115 9.5175 6.105 9.8475 7.125 10.1875 C6.375 14.9375 6.375 14.9375 4.125 17.1875 C-2.19758065 17.52620968 -2.19758065 17.52620968 -4.875 16.1875 C-4.545 15.1975 -4.215 14.2075 -3.875 13.1875 C-1.895 13.1875 0.085 13.1875 2.125 13.1875 C2.125 12.5275 2.125 11.8675 2.125 11.1875 C1.135 10.8575 0.145 10.5275 -0.875 10.1875 C-0.875 9.1975 -0.875 8.2075 -0.875 7.1875 C-0.215 6.8575 0.445 6.5275 1.125 6.1875 C1.455 5.1975 1.785 4.2075 2.125 3.1875 C0.145 3.5175 -1.835 3.8475 -3.875 4.1875 C-3.875 0.25271739 -3.875 0.25271739 0 0 Z " fill="#EAEAEB" transform="translate(165.875,480.8125)"/>
<path d="M0 0 C3.125 0.1875 3.125 0.1875 6.125 2.1875 C5.25 6.9375 5.25 6.9375 4.125 9.1875 C5.115 9.5175 6.105 9.8475 7.125 10.1875 C6.375 14.9375 6.375 14.9375 4.125 17.1875 C-2.19758065 17.52620968 -2.19758065 17.52620968 -4.875 16.1875 C-4.545 15.1975 -4.215 14.2075 -3.875 13.1875 C-1.895 13.1875 0.085 13.1875 2.125 13.1875 C2.125 12.5275 2.125 11.8675 2.125 11.1875 C1.135 10.8575 0.145 10.5275 -0.875 10.1875 C-0.875 9.1975 -0.875 8.2075 -0.875 7.1875 C-0.215 6.8575 0.445 6.5275 1.125 6.1875 C1.455 5.1975 1.785 4.2075 2.125 3.1875 C0.145 3.5175 -1.835 3.8475 -3.875 4.1875 C-3.875 0.25271739 -3.875 0.25271739 0 0 Z " fill="#EAEAEB" transform="translate(375.875,344.8125)"/>
<path d="M0 0 C3.125 0.1875 3.125 0.1875 6.125 2.1875 C5.25 6.9375 5.25 6.9375 4.125 9.1875 C5.115 9.5175 6.105 9.8475 7.125 10.1875 C6.375 14.9375 6.375 14.9375 4.125 17.1875 C-2.19758065 17.52620968 -2.19758065 17.52620968 -4.875 16.1875 C-4.545 15.1975 -4.215 14.2075 -3.875 13.1875 C-1.895 13.1875 0.085 13.1875 2.125 13.1875 C2.125 12.5275 2.125 11.8675 2.125 11.1875 C1.135 10.8575 0.145 10.5275 -0.875 10.1875 C-0.875 9.1975 -0.875 8.2075 -0.875 7.1875 C-0.215 6.8575 0.445 6.5275 1.125 6.1875 C1.455 5.1975 1.785 4.2075 2.125 3.1875 C0.145 3.5175 -1.835 3.8475 -3.875 4.1875 C-3.875 0.25271739 -3.875 0.25271739 0 0 Z " fill="#EAEAEB" transform="translate(375.875,242.8125)"/>
<path d="M0 0 C3.125 0.1875 3.125 0.1875 6.125 2.1875 C5.25 6.9375 5.25 6.9375 4.125 9.1875 C5.115 9.5175 6.105 9.8475 7.125 10.1875 C6.375 14.9375 6.375 14.9375 4.125 17.1875 C-2.19758065 17.52620968 -2.19758065 17.52620968 -4.875 16.1875 C-4.545 15.1975 -4.215 14.2075 -3.875 13.1875 C-1.895 13.1875 0.085 13.1875 2.125 13.1875 C2.125 12.5275 2.125 11.8675 2.125 11.1875 C1.135 10.8575 0.145 10.5275 -0.875 10.1875 C-0.875 9.1975 -0.875 8.2075 -0.875 7.1875 C-0.215 6.8575 0.445 6.5275 1.125 6.1875 C1.455 5.1975 1.785 4.2075 2.125 3.1875 C0.145 3.5175 -1.835 3.8475 -3.875 4.1875 C-3.875 0.25271739 -3.875 0.25271739 0 0 Z " fill="#EAEAEB" transform="translate(361.875,242.8125)"/>
<path d="M0 0 C3.125 0.1875 3.125 0.1875 6.125 2.1875 C5.25 6.9375 5.25 6.9375 4.125 9.1875 C5.115 9.5175 6.105 9.8475 7.125 10.1875 C6.375 14.9375 6.375 14.9375 4.125 17.1875 C-2.19758065 17.52620968 -2.19758065 17.52620968 -4.875 16.1875 C-4.545 15.1975 -4.215 14.2075 -3.875 13.1875 C-1.895 13.1875 0.085 13.1875 2.125 13.1875 C2.125 12.5275 2.125 11.8675 2.125 11.1875 C1.135 10.8575 0.145 10.5275 -0.875 10.1875 C-0.875 9.1975 -0.875 8.2075 -0.875 7.1875 C-0.215 6.8575 0.445 6.5275 1.125 6.1875 C1.455 5.1975 1.785 4.2075 2.125 3.1875 C0.145 3.5175 -1.835 3.8475 -3.875 4.1875 C-3.875 0.25271739 -3.875 0.25271739 0 0 Z " fill="#EAEAEB" transform="translate(165.875,174.8125)"/>
<path d="M0 0 C3.125 0.1875 3.125 0.1875 6.125 2.1875 C5.25 6.9375 5.25 6.9375 4.125 9.1875 C5.115 9.5175 6.105 9.8475 7.125 10.1875 C6.375 14.9375 6.375 14.9375 4.125 17.1875 C-2.19758065 17.52620968 -2.19758065 17.52620968 -4.875 16.1875 C-4.545 15.1975 -4.215 14.2075 -3.875 13.1875 C-1.895 13.1875 0.085 13.1875 2.125 13.1875 C2.125 12.5275 2.125 11.8675 2.125 11.1875 C1.135 10.8575 0.145 10.5275 -0.875 10.1875 C-0.875 9.1975 -0.875 8.2075 -0.875 7.1875 C-0.215 6.8575 0.445 6.5275 1.125 6.1875 C1.455 5.1975 1.785 4.2075 2.125 3.1875 C0.145 3.5175 -1.835 3.8475 -3.875 4.1875 C-3.875 0.25271739 -3.875 0.25271739 0 0 Z " fill="#EAEAEB" transform="translate(193.875,72.8125)"/>
<path d="M0 0 C3.125 0.1875 3.125 0.1875 6.125 2.1875 C5.25 6.9375 5.25 6.9375 4.125 9.1875 C5.115 9.5175 6.105 9.8475 7.125 10.1875 C6.375 14.9375 6.375 14.9375 4.125 17.1875 C-2.19758065 17.52620968 -2.19758065 17.52620968 -4.875 16.1875 C-4.545 15.1975 -4.215 14.2075 -3.875 13.1875 C-1.895 13.1875 0.085 13.1875 2.125 13.1875 C2.125 12.5275 2.125 11.8675 2.125 11.1875 C1.135 10.8575 0.145 10.5275 -0.875 10.1875 C-0.875 9.1975 -0.875 8.2075 -0.875 7.1875 C-0.215 6.8575 0.445 6.5275 1.125 6.1875 C1.455 5.1975 1.785 4.2075 2.125 3.1875 C0.145 3.5175 -1.835 3.8475 -3.875 4.1875 C-3.875 0.25271739 -3.875 0.25271739 0 0 Z " fill="#EAEAEB" transform="translate(165.875,72.8125)"/>
<path d="M0 0 C3.125 0.1875 3.125 0.1875 6.125 2.1875 C5.25 6.9375 5.25 6.9375 4.125 9.1875 C5.115 9.5175 6.105 9.8475 7.125 10.1875 C6.375 14.9375 6.375 14.9375 4.125 17.1875 C-2.19758065 17.52620968 -2.19758065 17.52620968 -4.875 16.1875 C-4.545 15.1975 -4.215 14.2075 -3.875 13.1875 C-1.895 13.1875 0.085 13.1875 2.125 13.1875 C2.125 12.5275 2.125 11.8675 2.125 11.1875 C1.135 10.8575 0.145 10.5275 -0.875 10.1875 C-0.875 9.1975 -0.875 8.2075 -0.875 7.1875 C-0.215 6.8575 0.445 6.5275 1.125 6.1875 C1.455 5.1975 1.785 4.2075 2.125 3.1875 C0.145 3.5175 -1.835 3.8475 -3.875 4.1875 C-3.875 0.25271739 -3.875 0.25271739 0 0 Z " fill="#EAEAEB" transform="translate(375.875,38.8125)"/>
<path d="M0 0 C3.125 0.1875 3.125 0.1875 6.125 2.1875 C5.25 6.9375 5.25 6.9375 4.125 9.1875 C5.115 9.5175 6.105 9.8475 7.125 10.1875 C6.375 14.9375 6.375 14.9375 4.125 17.1875 C-2.19758065 17.52620968 -2.19758065 17.52620968 -4.875 16.1875 C-4.545 15.1975 -4.215 14.2075 -3.875 13.1875 C-1.895 13.1875 0.085 13.1875 2.125 13.1875 C2.125 12.5275 2.125 11.8675 2.125 11.1875 C1.135 10.8575 0.145 10.5275 -0.875 10.1875 C-0.875 9.1975 -0.875 8.2075 -0.875 7.1875 C-0.215 6.8575 0.445 6.5275 1.125 6.1875 C1.455 5.1975 1.785 4.2075 2.125 3.1875 C0.145 3.5175 -1.835 3.8475 -3.875 4.1875 C-3.875 0.25271739 -3.875 0.25271739 0 0 Z " fill="#EAEAEB" transform="translate(361.875,38.8125)"/>
<path d="M0 0 C1 1 1 1 1.375 3.75 C0.88549712 7.99235832 -0.81835707 9.29560351 -4 12 C-1.03 12.495 -1.03 12.495 2 13 C2 13.99 2 14.98 2 16 C-1.96 16 -5.92 16 -10 16 C-9 12 -9 12 -6.5 9.5625 C-3.88172369 6.87876678 -3.31302824 5.6519961 -3 2 C-4.98 2.33 -6.96 2.66 -9 3 C-9 2.01 -9 1.02 -9 0 C-5.90842747 -1.54578627 -3.31526981 -0.60277633 0 0 Z " fill="#F0F0F0" transform="translate(647,448)"/>
<path d="M0 0 C1 1 1 1 1.375 3.75 C0.88549712 7.99235832 -0.81835707 9.29560351 -4 12 C-1.03 12.495 -1.03 12.495 2 13 C2 13.99 2 14.98 2 16 C-1.96 16 -5.92 16 -10 16 C-9 12 -9 12 -6.5 9.5625 C-3.88172369 6.87876678 -3.31302824 5.6519961 -3 2 C-4.98 2.33 -6.96 2.66 -9 3 C-9 2.01 -9 1.02 -9 0 C-5.90842747 -1.54578627 -3.31526981 -0.60277633 0 0 Z " fill="#F0F0F0" transform="translate(423,346)"/>
<path d="M0 0 C1 1 1 1 1.375 3.75 C0.88549712 7.99235832 -0.81835707 9.29560351 -4 12 C-1.03 12.495 -1.03 12.495 2 13 C2 13.99 2 14.98 2 16 C-1.96 16 -5.92 16 -10 16 C-9 12 -9 12 -6.5 9.5625 C-3.88172369 6.87876678 -3.31302824 5.6519961 -3 2 C-4.98 2.33 -6.96 2.66 -9 3 C-9 2.01 -9 1.02 -9 0 C-5.90842747 -1.54578627 -3.31526981 -0.60277633 0 0 Z " fill="#F0F0F0" transform="translate(157,278)"/>
<path d="M0 0 C1 1 1 1 1.375 3.75 C0.88549712 7.99235832 -0.81835707 9.29560351 -4 12 C-1.03 12.495 -1.03 12.495 2 13 C2 13.99 2 14.98 2 16 C-1.96 16 -5.92 16 -10 16 C-9 12 -9 12 -6.5 9.5625 C-3.88172369 6.87876678 -3.31302824 5.6519961 -3 2 C-4.98 2.33 -6.96 2.66 -9 3 C-9 2.01 -9 1.02 -9 0 C-5.90842747 -1.54578627 -3.31526981 -0.60277633 0 0 Z " fill="#F0F0F0" transform="translate(577,142)"/>
<path d="M0 0 C0 4.62 0 9.24 0 14 C0.99 14 1.98 14 3 14 C3 14.99 3 15.98 3 17 C-0.63 17 -4.26 17 -8 17 C-8 16.01 -8 15.02 -8 14 C-6.68 14 -5.36 14 -4 14 C-4 11.03 -4 8.06 -4 5 C-5.32 5.33 -6.64 5.66 -8 6 C-7.6875 4.125 -7.6875 4.125 -7 2 C-4 0 -4 0 0 0 Z " fill="#E8E9E9" transform="translate(212,481)"/>
<path d="M0 0 C0.99 0 1.98 0 3 0 C3 3.3 3 6.6 3 10 C4.32 10 5.64 10 7 10 C7 6.7 7 3.4 7 0 C8.32 0 9.64 0 11 0 C11 4.29 11 8.58 11 13 C3.28515625 13.09765625 3.28515625 13.09765625 1 13 C0 12 0 12 -0.09765625 9.27734375 C-0.08605469 8.17519531 -0.07445312 7.07304688 -0.0625 5.9375 C-0.05347656 4.83277344 -0.04445313 3.72804688 -0.03515625 2.58984375 C-0.02355469 1.73519531 -0.01195312 0.88054688 0 0 Z " fill="#EAEAEA" transform="translate(540,519)"/>
<path d="M0 0 C0.99 0 1.98 0 3 0 C3 3.3 3 6.6 3 10 C4.32 10 5.64 10 7 10 C7 6.7 7 3.4 7 0 C8.32 0 9.64 0 11 0 C11 4.29 11 8.58 11 13 C3.28515625 13.09765625 3.28515625 13.09765625 1 13 C0 12 0 12 -0.09765625 9.27734375 C-0.08605469 8.17519531 -0.07445312 7.07304687 -0.0625 5.9375 C-0.05347656 4.83277344 -0.04445312 3.72804688 -0.03515625 2.58984375 C-0.02355469 1.73519531 -0.01195312 0.88054687 0 0 Z " fill="#EAEAEA" transform="translate(36,451)"/>
<path d="M0 0 C0.99 0 1.98 0 3 0 C3 3.3 3 6.6 3 10 C4.32 10 5.64 10 7 10 C7 6.7 7 3.4 7 0 C8.32 0 9.64 0 11 0 C11 4.29 11 8.58 11 13 C3.28515625 13.09765625 3.28515625 13.09765625 1 13 C0 12 0 12 -0.09765625 9.27734375 C-0.08605469 8.17519531 -0.07445312 7.07304687 -0.0625 5.9375 C-0.05347656 4.83277344 -0.04445313 3.72804688 -0.03515625 2.58984375 C-0.02355469 1.73519531 -0.01195312 0.88054688 0 0 Z " fill="#EAEAEA" transform="translate(428,9)"/>
<path d="M0 0 C6.8359375 -0.1953125 6.8359375 -0.1953125 9 0 C11 2 11 2 11.1953125 4.6015625 C11.17210937 5.59929688 11.14890625 6.59703125 11.125 7.625 C11.10695313 8.62789062 11.08890625 9.63078125 11.0703125 10.6640625 C11.03550781 11.82035156 11.03550781 11.82035156 11 13 C9.68 13 8.36 13 7 13 C7 9.7 7 6.4 7 3 C6.01 3.33 5.02 3.66 4 4 C3.67 6.97 3.34 9.94 3 13 C2.01 13 1.02 13 0 13 C0 8.71 0 4.42 0 0 Z " fill="#EFEFF0" transform="translate(302,519)"/>
<path d="M0 0 C1.134375 0.020625 2.26875 0.04125 3.4375 0.0625 C3.4375 1.0525 3.4375 2.0425 3.4375 3.0625 C1.4575 3.0625 -0.5225 3.0625 -2.5625 3.0625 C-2.5625 4.0525 -2.5625 5.0425 -2.5625 6.0625 C-1.2425 6.0625 0.0775 6.0625 1.4375 6.0625 C1.4375 7.0525 1.4375 8.0425 1.4375 9.0625 C0.1175 9.0625 -1.2025 9.0625 -2.5625 9.0625 C-2.5625 12.0325 -2.5625 15.0025 -2.5625 18.0625 C-3.8825 18.0625 -5.2025 18.0625 -6.5625 18.0625 C-6.5625 15.0925 -6.5625 12.1225 -6.5625 9.0625 C-7.2225 9.0625 -7.8825 9.0625 -8.5625 9.0625 C-8.5625 8.0725 -8.5625 7.0825 -8.5625 6.0625 C-7.5725 6.0625 -6.5825 6.0625 -5.5625 6.0625 C-5.418125 5.258125 -5.27375 4.45375 -5.125 3.625 C-4.26443625 -0.29534596 -4.23242358 0.07425305 0 0 Z " fill="#E9E9EA" transform="translate(240.5625,513.9375)"/>
<path d="M0 0 C6.8359375 -0.1953125 6.8359375 -0.1953125 9 0 C11 2 11 2 11.1953125 4.6015625 C11.17210937 5.59929687 11.14890625 6.59703125 11.125 7.625 C11.10695313 8.62789063 11.08890625 9.63078125 11.0703125 10.6640625 C11.03550781 11.82035156 11.03550781 11.82035156 11 13 C9.68 13 8.36 13 7 13 C7 9.7 7 6.4 7 3 C6.01 3.33 5.02 3.66 4 4 C3.67 6.97 3.34 9.94 3 13 C2.01 13 1.02 13 0 13 C0 8.71 0 4.42 0 0 Z " fill="#EFEFF0" transform="translate(36,349)"/>
<path d="M0 0 C6.8359375 -0.1953125 6.8359375 -0.1953125 9 0 C11 2 11 2 11.1953125 4.6015625 C11.17210937 5.59929688 11.14890625 6.59703125 11.125 7.625 C11.10695313 8.62789062 11.08890625 9.63078125 11.0703125 10.6640625 C11.03550781 11.82035156 11.03550781 11.82035156 11 13 C9.68 13 8.36 13 7 13 C7 9.7 7 6.4 7 3 C6.01 3.33 5.02 3.66 4 4 C3.67 6.97 3.34 9.94 3 13 C2.01 13 1.02 13 0 13 C0 8.71 0 4.42 0 0 Z " fill="#EFEFF0" transform="translate(288,9)"/>
<path d="M0 0 C1.134375 0.020625 2.26875 0.04125 3.4375 0.0625 C3.4375 1.0525 3.4375 2.0425 3.4375 3.0625 C1.4575 3.0625 -0.5225 3.0625 -2.5625 3.0625 C-2.5625 4.0525 -2.5625 5.0425 -2.5625 6.0625 C-1.2425 6.0625 0.0775 6.0625 1.4375 6.0625 C1.4375 7.0525 1.4375 8.0425 1.4375 9.0625 C0.1175 9.0625 -1.2025 9.0625 -2.5625 9.0625 C-2.5625 12.0325 -2.5625 15.0025 -2.5625 18.0625 C-3.8825 18.0625 -5.2025 18.0625 -6.5625 18.0625 C-6.5625 15.0925 -6.5625 12.1225 -6.5625 9.0625 C-7.2225 9.0625 -7.8825 9.0625 -8.5625 9.0625 C-8.5625 8.0725 -8.5625 7.0825 -8.5625 6.0625 C-7.5725 6.0625 -6.5825 6.0625 -5.5625 6.0625 C-5.418125 5.258125 -5.27375 4.45375 -5.125 3.625 C-4.26443625 -0.29534596 -4.23242358 0.07425305 0 0 Z " fill="#E9E9EA" transform="translate(492.5625,3.9375)"/>
<path d="M0 0 C1.134375 0.020625 2.26875 0.04125 3.4375 0.0625 C3.4375 1.0525 3.4375 2.0425 3.4375 3.0625 C1.4575 3.0625 -0.5225 3.0625 -2.5625 3.0625 C-2.5625 4.0525 -2.5625 5.0425 -2.5625 6.0625 C-1.2425 6.0625 0.0775 6.0625 1.4375 6.0625 C1.4375 7.0525 1.4375 8.0425 1.4375 9.0625 C0.1175 9.0625 -1.2025 9.0625 -2.5625 9.0625 C-2.5625 12.0325 -2.5625 15.0025 -2.5625 18.0625 C-3.8825 18.0625 -5.2025 18.0625 -6.5625 18.0625 C-6.5625 15.0925 -6.5625 12.1225 -6.5625 9.0625 C-7.2225 9.0625 -7.8825 9.0625 -8.5625 9.0625 C-8.5625 8.0725 -8.5625 7.0825 -8.5625 6.0625 C-7.5725 6.0625 -6.5825 6.0625 -5.5625 6.0625 C-5.418125 5.258125 -5.27375 4.45375 -5.125 3.625 C-4.26443625 -0.29534596 -4.23242358 0.07425305 0 0 Z " fill="#E9E9EA" transform="translate(226.5625,3.9375)"/>
<path d="M0 0 C1.134375 0.020625 2.26875 0.04125 3.4375 0.0625 C3.7675 1.0525 4.0975 2.0425 4.4375 3.0625 C2.7875 3.3925 1.1375 3.7225 -0.5625 4.0625 C1.4175 5.0525 3.3975 6.0425 5.4375 7.0625 C4.5625 11.9375 4.5625 11.9375 3.4375 13.0625 C-2.29861111 13.33564815 -2.29861111 13.33564815 -4.5625 13.0625 C-5.2225 12.4025 -5.8825 11.7425 -6.5625 11.0625 C-4.2525 10.4025 -1.9425 9.7425 0.4375 9.0625 C-1.5425 8.0725 -3.5225 7.0825 -5.5625 6.0625 C-4.48849278 0.07874549 -4.48849278 0.07874549 0 0 Z " fill="#E6E6E7" transform="translate(13.5625,450.9375)"/>
<path d="M0 0 C1.134375 0.020625 2.26875 0.04125 3.4375 0.0625 C3.7675 1.0525 4.0975 2.0425 4.4375 3.0625 C2.7875 3.3925 1.1375 3.7225 -0.5625 4.0625 C1.4175 5.0525 3.3975 6.0425 5.4375 7.0625 C4.5625 11.9375 4.5625 11.9375 3.4375 13.0625 C-2.29861111 13.33564815 -2.29861111 13.33564815 -4.5625 13.0625 C-5.2225 12.4025 -5.8825 11.7425 -6.5625 11.0625 C-4.2525 10.4025 -1.9425 9.7425 0.4375 9.0625 C-1.5425 8.0725 -3.5225 7.0825 -5.5625 6.0625 C-4.48849278 0.07874549 -4.48849278 0.07874549 0 0 Z " fill="#E6E6E7" transform="translate(671.5625,8.9375)"/>
<path d="M0 0 C1.134375 0.020625 2.26875 0.04125 3.4375 0.0625 C3.7675 1.0525 4.0975 2.0425 4.4375 3.0625 C2.7875 3.3925 1.1375 3.7225 -0.5625 4.0625 C1.4175 5.0525 3.3975 6.0425 5.4375 7.0625 C4.5625 11.9375 4.5625 11.9375 3.4375 13.0625 C-2.29861111 13.33564815 -2.29861111 13.33564815 -4.5625 13.0625 C-5.2225 12.4025 -5.8825 11.7425 -6.5625 11.0625 C-4.2525 10.4025 -1.9425 9.7425 0.4375 9.0625 C-1.5425 8.0725 -3.5225 7.0825 -5.5625 6.0625 C-4.48849278 0.07874549 -4.48849278 0.07874549 0 0 Z " fill="#E6E6E7" transform="translate(363.5625,8.9375)"/>
<path d="M0 0 C1.32 0 2.64 0 4 0 C4 0.99 4 1.98 4 3 C5.32 3 6.64 3 8 3 C8 3.99 8 4.98 8 6 C6.68 6 5.36 6 4 6 C4 8.31 4 10.62 4 13 C5.65 13.33 7.3 13.66 9 14 C9 14.66 9 15.32 9 16 C5.625 16.125 5.625 16.125 2 16 C0 14 0 14 -0.1953125 12.0546875 C-0.13020833 10.03645833 -0.06510417 8.01822917 0 6 C-0.99 6 -1.98 6 -3 6 C-3 5.01 -3 4.02 -3 3 C-2.01 3 -1.02 3 0 3 C0 2.01 0 1.02 0 0 Z " fill="#E8E8E9" transform="translate(24,448)"/>
<path d="M0 0 C3.66666667 0 7.33333333 0 11 0 C11 1.32 11 2.64 11 4 C9.68 4 8.36 4 7 4 C6.67 5.98 6.34 7.96 6 10 C7.32 10 8.64 10 10 10 C10 10.99 10 11.98 10 13 C6.7 13 3.4 13 0 13 C0 12.01 0 11.02 0 10 C0.66 10 1.32 10 2 10 C2 7.69 2 5.38 2 3 C1.34 3 0.68 3 0 3 C0 2.01 0 1.02 0 0 Z " fill="#E3E3E4" transform="translate(624,519)"/>
<path d="M0 0 C3.66666667 0 7.33333333 0 11 0 C11 1.32 11 2.64 11 4 C9.68 4 8.36 4 7 4 C6.67 5.98 6.34 7.96 6 10 C7.32 10 8.64 10 10 10 C10 10.99 10 11.98 10 13 C6.7 13 3.4 13 0 13 C0 12.01 0 11.02 0 10 C0.66 10 1.32 10 2 10 C2 7.69 2 5.38 2 3 C1.34 3 0.68 3 0 3 C0 2.01 0 1.02 0 0 Z " fill="#E3E3E4" transform="translate(400,519)"/>
<path d="M0 0 C3.66666667 0 7.33333333 0 11 0 C11 1.32 11 2.64 11 4 C9.68 4 8.36 4 7 4 C6.67 5.98 6.34 7.96 6 10 C7.32 10 8.64 10 10 10 C10 10.99 10 11.98 10 13 C6.7 13 3.4 13 0 13 C0 12.01 0 11.02 0 10 C0.66 10 1.32 10 2 10 C2 7.69 2 5.38 2 3 C1.34 3 0.68 3 0 3 C0 2.01 0 1.02 0 0 Z " fill="#E3E3E4" transform="translate(260,519)"/>
<path d="M0 0 C3.66666667 0 7.33333333 0 11 0 C11 1.32 11 2.64 11 4 C9.68 4 8.36 4 7 4 C6.67 5.98 6.34 7.96 6 10 C7.32 10 8.64 10 10 10 C10 10.99 10 11.98 10 13 C6.7 13 3.4 13 0 13 C0 12.01 0 11.02 0 10 C0.66 10 1.32 10 2 10 C2 7.69 2 5.38 2 3 C1.34 3 0.68 3 0 3 C0 2.01 0 1.02 0 0 Z " fill="#E3E3E4" transform="translate(218,519)"/>
<path d="M0 0 C3.66666667 0 7.33333333 0 11 0 C11 1.32 11 2.64 11 4 C9.68 4 8.36 4 7 4 C6.67 5.98 6.34 7.96 6 10 C7.32 10 8.64 10 10 10 C10 10.99 10 11.98 10 13 C6.7 13 3.4 13 0 13 C0 12.01 0 11.02 0 10 C0.66 10 1.32 10 2 10 C2 7.69 2 5.38 2 3 C1.34 3 0.68 3 0 3 C0 2.01 0 1.02 0 0 Z " fill="#E3E3E4" transform="translate(36,43)"/>
<path d="M0 0 C3.66666667 0 7.33333333 0 11 0 C11 1.32 11 2.64 11 4 C9.68 4 8.36 4 7 4 C6.67 5.98 6.34 7.96 6 10 C7.32 10 8.64 10 10 10 C10 10.99 10 11.98 10 13 C6.7 13 3.4 13 0 13 C0 12.01 0 11.02 0 10 C0.66 10 1.32 10 2 10 C2 7.69 2 5.38 2 3 C1.34 3 0.68 3 0 3 C0 2.01 0 1.02 0 0 Z " fill="#E3E3E4" transform="translate(246,9)"/>
<path d="M0 0 C3.66666667 0 7.33333333 0 11 0 C11 1.32 11 2.64 11 4 C9.68 4 8.36 4 7 4 C6.67 5.98 6.34 7.96 6 10 C7.32 10 8.64 10 10 10 C10 10.99 10 11.98 10 13 C6.7 13 3.4 13 0 13 C0 12.01 0 11.02 0 10 C0.66 10 1.32 10 2 10 C2 7.69 2 5.38 2 3 C1.34 3 0.68 3 0 3 C0 2.01 0 1.02 0 0 Z " fill="#E3E3E4" transform="translate(204,9)"/>
<path d="M0 0 C2.58484592 0.9804588 3.94843031 1.93922143 5.75 4.0625 C7.48164454 8.13186467 7.69712446 11.64105693 7 16 C4.24137931 21.51724138 4.24137931 21.51724138 0.75 22.875 C0.1725 22.91625 -0.405 22.9575 -1 23 C-0.690625 22.236875 -0.38125 21.47375 -0.0625 20.6875 C1.76727155 16.05925431 2.61484472 11.97923432 2 7 C0.53228729 4.73545927 0.53228729 4.73545927 -1 3 C-0.67 2.01 -0.34 1.02 0 0 Z " fill="#EAEAEA" transform="translate(697,512)"/>
<path d="M0 0 C3.96 0 7.92 0 12 0 C11.49487476 6.22987798 8.67395877 11.45474233 6 17 C4.68 17 3.36 17 2 17 C2.45445964 15.58208592 2.91374944 14.16571954 3.375 12.75 C3.75785156 11.56664062 3.75785156 11.56664062 4.1484375 10.359375 C4.95173667 8.13372042 5.89711662 6.09068328 7 4 C4.69 3.67 2.38 3.34 0 3 C0 2.01 0 1.02 0 0 Z " fill="#E0E1E1" transform="translate(595,447)"/>
<path d="M0 0 C3.96 0 7.92 0 12 0 C11.49487476 6.22987798 8.67395877 11.45474233 6 17 C4.68 17 3.36 17 2 17 C2.45445964 15.58208592 2.91374944 14.16571954 3.375 12.75 C3.75785156 11.56664062 3.75785156 11.56664062 4.1484375 10.359375 C4.95173667 8.13372042 5.89711662 6.09068328 7 4 C4.69 3.67 2.38 3.34 0 3 C0 2.01 0 1.02 0 0 Z " fill="#E0E1E1" transform="translate(217,379)"/>
<path d="M0 0 C3.96 0 7.92 0 12 0 C11.49487476 6.22987798 8.67395877 11.45474233 6 17 C4.68 17 3.36 17 2 17 C2.45445964 15.58208592 2.91374944 14.16571954 3.375 12.75 C3.75785156 11.56664062 3.75785156 11.56664062 4.1484375 10.359375 C4.95173667 8.13372042 5.89711662 6.09068328 7 4 C4.69 3.67 2.38 3.34 0 3 C0 2.01 0 1.02 0 0 Z " fill="#E0E1E1" transform="translate(189,175)"/>
<path d="M0 0 C8.49609375 -0.09765625 8.49609375 -0.09765625 11 0 C12 1 12 1 12.09765625 3.72265625 C12.08605469 4.82480469 12.07445312 5.92695312 12.0625 7.0625 C12.05347656 8.16722656 12.04445313 9.27195312 12.03515625 10.41015625 C12.02355469 11.26480469 12.01195312 12.11945312 12 13 C11.34 13 10.68 13 10 13 C10 9.37 10 5.74 10 2 C9.01 2.495 9.01 2.495 8 3 C7.53248212 5.35599235 7.53248212 5.35599235 7.375 8.0625 C7.30023438 8.98160156 7.22546875 9.90070312 7.1484375 10.84765625 C7.09945313 11.55792969 7.05046875 12.26820313 7 13 C6.34 13 5.68 13 5 13 C5 9.37 5 5.74 5 2 C4.01 2.495 4.01 2.495 3 3 C2.53248212 5.35599235 2.53248212 5.35599235 2.375 8.0625 C2.30023438 8.98160156 2.22546875 9.90070312 2.1484375 10.84765625 C2.09945313 11.55792969 2.05046875 12.26820313 2 13 C1.34 13 0.68 13 0 13 C0 8.71 0 4.42 0 0 Z " fill="#BCBDBE" transform="translate(259,587)"/>
<path d="M0 0 C2.875 -0.125 2.875 -0.125 6 0 C8.58926331 2.58926331 8.37398043 4.02705279 8.625 7.625 C8.69976562 8.62789062 8.77453125 9.63078125 8.8515625 10.6640625 C8.92503906 11.82035156 8.92503906 11.82035156 9 13 C7.52093108 13.02689216 6.04172517 13.04634621 4.5625 13.0625 C3.32693359 13.07990234 3.32693359 13.07990234 2.06640625 13.09765625 C0 13 0 13 -1 12 C-1.25 9.5625 -1.25 9.5625 -1 7 C2 5 2 5 6 5 C6 4.01 6 3.02 6 2 C4.02 2 2.04 2 0 2 C0 1.34 0 0.68 0 0 Z " fill="#B9BABB" transform="translate(93,587)"/>
<path d="M0 0 C1.32 0 2.64 0 4 0 C4.66 1.98 5.32 3.96 6 6 C6.99 4.02 7.98 2.04 9 0 C9.99 0 10.98 0 12 0 C11.68817931 1.41681634 11.37551263 2.83344651 11.0625 4.25 C10.88847656 5.03890625 10.71445312 5.8278125 10.53515625 6.640625 C10.052444 8.76878703 9.53836822 10.88532842 9 13 C7.35 13 5.7 13 4 13 C3.32942113 11.2097939 2.6636531 9.41778511 2 7.625 C1.62875 6.62726562 1.2575 5.62953125 0.875 4.6015625 C0 2 0 2 0 0 Z " fill="#EDEDEE" transform="translate(343,9)"/>
<path d="M0 0 C2 2 2 2 2.125 4.625 C2.08375 5.40875 2.0425 6.1925 2 7 C-0.64 7 -3.28 7 -6 7 C-5.67 7.99 -5.34 8.98 -5 10 C-2.69 10.33 -0.38 10.66 2 11 C1.67 11.66 1.34 12.32 1 13 C-4.36842105 13.35789474 -4.36842105 13.35789474 -6.875 11.9375 C-8.64273274 8.8930714 -8.36823916 6.4368988 -8 3 C-5.94362059 -0.35514536 -3.76397853 -0.48256135 0 0 Z " fill="#BFBFC0" transform="translate(212,587)"/>
<path d="M0 0 C2 2 2 2 2.125 4.625 C2.08375 5.40875 2.0425 6.1925 2 7 C-0.64 7 -3.28 7 -6 7 C-5.67 7.99 -5.34 8.98 -5 10 C-2.69 10.33 -0.38 10.66 2 11 C1.67 11.66 1.34 12.32 1 13 C-4.36842105 13.35789474 -4.36842105 13.35789474 -6.875 11.9375 C-8.64273274 8.8930714 -8.36823916 6.4368988 -8 3 C-5.94362059 -0.35514536 -3.76397853 -0.48256135 0 0 Z " fill="#BFBFC0" transform="translate(142,587)"/>
<path d="M0 0 C2 2 2 2 2.125 4.625 C2.08375 5.40875 2.0425 6.1925 2 7 C-0.64 7 -3.28 7 -6 7 C-5.67 7.99 -5.34 8.98 -5 10 C-2.69 10.33 -0.38 10.66 2 11 C1.67 11.66 1.34 12.32 1 13 C-4.36842105 13.35789474 -4.36842105 13.35789474 -6.875 11.9375 C-8.64273274 8.8930714 -8.36823916 6.4368988 -8 3 C-5.94362059 -0.35514536 -3.76397853 -0.48256135 0 0 Z " fill="#BFBFC0" transform="translate(30,587)"/>
<path d="M0 0 C0.99 0.33 1.98 0.66 3 1 C2.01 2.5159375 2.01 2.5159375 1 4.0625 C-1.14580929 7.84248434 -1.56771673 10.62047095 -1 15 C0.42621684 17.71126384 0.42621684 17.71126384 2 20 C2 20.99 2 21.98 2 23 C-0.76813126 22.71364159 -1.8312917 22.18075889 -3.75 20.125 C-5.6308132 15.42296699 -5.81711645 10.99024687 -5 6 C-3.58594163 3.42719935 -2.18689448 2.0228774 0 0 Z " fill="#F2F2F3" transform="translate(672,512)"/>
<path d="M0 0 C2.64 0 5.28 0 8 0 C8 3.3 8 6.6 8 10 C8.99 10 9.98 10 11 10 C11 10.99 11 11.98 11 13 C7.37 13 3.74 13 0 13 C0 12.34 0 11.68 0 11 C1.32 11 2.64 11 4 11 C4 8.36 4 5.72 4 3 C2.68 3 1.36 3 0 3 C0 2.01 0 1.02 0 0 Z " fill="#E0E0E1" transform="translate(64,451)"/>
<path d="M0 0 C2.64 0 5.28 0 8 0 C8 3.3 8 6.6 8 10 C8.99 10 9.98 10 11 10 C11 10.99 11 11.98 11 13 C7.37 13 3.74 13 0 13 C0 12.34 0 11.68 0 11 C1.32 11 2.64 11 4 11 C4 8.36 4 5.72 4 3 C2.68 3 1.36 3 0 3 C0 2.01 0 1.02 0 0 Z " fill="#E0E0E1" transform="translate(50,349)"/>
<path d="M0 0 C2.64 0 5.28 0 8 0 C8 3.3 8 6.6 8 10 C8.99 10 9.98 10 11 10 C11 10.99 11 11.98 11 13 C7.37 13 3.74 13 0 13 C0 12.34 0 11.68 0 11 C1.32 11 2.64 11 4 11 C4 8.36 4 5.72 4 3 C2.68 3 1.36 3 0 3 C0 2.01 0 1.02 0 0 Z " fill="#E0E0E1" transform="translate(22,349)"/>
<path d="M0 0 C2.64 0 5.28 0 8 0 C8 3.3 8 6.6 8 10 C8.99 10 9.98 10 11 10 C11 10.99 11 11.98 11 13 C7.37 13 3.74 13 0 13 C0 12.34 0 11.68 0 11 C1.32 11 2.64 11 4 11 C4 8.36 4 5.72 4 3 C2.68 3 1.36 3 0 3 C0 2.01 0 1.02 0 0 Z " fill="#E0E0E1" transform="translate(8,247)"/>
<path d="M0 0 C2.64 0 5.28 0 8 0 C8 3.3 8 6.6 8 10 C8.99 10 9.98 10 11 10 C11 10.99 11 11.98 11 13 C7.37 13 3.74 13 0 13 C0 12.34 0 11.68 0 11 C1.32 11 2.64 11 4 11 C4 8.36 4 5.72 4 3 C2.68 3 1.36 3 0 3 C0 2.01 0 1.02 0 0 Z " fill="#E0E0E1" transform="translate(22,43)"/>
<path d="M0 0 C0.66 0.66 1.32 1.32 2 2 C0.02 2.66 -1.96 3.32 -4 4 C-4.33 5.98 -4.66 7.96 -5 10 C-3.02 10 -1.04 10 1 10 C1 10.99 1 11.98 1 13 C-5.34507042 13.35915493 -5.34507042 13.35915493 -7.9375 11.9375 C-9.6140629 8.88023824 -9.36528977 6.4093712 -9 3 C-6.8388936 -0.72190547 -4.01418597 -0.42704106 0 0 Z " fill="#EDEDEE" transform="translate(605,519)"/>
<path d="M0 0 C0.66 0.66 1.32 1.32 2 2 C0.02 2.66 -1.96 3.32 -4 4 C-4.33 5.98 -4.66 7.96 -5 10 C-3.02 10 -1.04 10 1 10 C1 10.99 1 11.98 1 13 C-5.34507042 13.35915493 -5.34507042 13.35915493 -7.9375 11.9375 C-9.6140629 8.88023824 -9.36528977 6.4093712 -9 3 C-6.8388936 -0.72190547 -4.01418597 -0.42704106 0 0 Z " fill="#EDEDEE" transform="translate(381,519)"/>
<path d="M0 0 C0.66 0.66 1.32 1.32 2 2 C0.02 2.66 -1.96 3.32 -4 4 C-4.33 5.98 -4.66 7.96 -5 10 C-3.02 10 -1.04 10 1 10 C1 10.99 1 11.98 1 13 C-5.34507042 13.35915493 -5.34507042 13.35915493 -7.9375 11.9375 C-9.6140629 8.88023824 -9.36528977 6.4093712 -9 3 C-6.8388936 -0.72190547 -4.01418597 -0.42704106 0 0 Z " fill="#EDEDEE" transform="translate(325,519)"/>
<path d="M0 0 C0.66 0.66 1.32 1.32 2 2 C0.02 2.66 -1.96 3.32 -4 4 C-4.33 5.98 -4.66 7.96 -5 10 C-3.02 10 -1.04 10 1 10 C1 10.99 1 11.98 1 13 C-5.34507042 13.35915493 -5.34507042 13.35915493 -7.9375 11.9375 C-9.6140629 8.88023824 -9.36528977 6.4093712 -9 3 C-6.8388936 -0.72190547 -4.01418597 -0.42704106 0 0 Z " fill="#EDEDEE" transform="translate(59,247)"/>
<path d="M0 0 C0.66 0.66 1.32 1.32 2 2 C0.02 2.66 -1.96 3.32 -4 4 C-4.33 5.98 -4.66 7.96 -5 10 C-3.02 10 -1.04 10 1 10 C1 10.99 1 11.98 1 13 C-5.34507042 13.35915493 -5.34507042 13.35915493 -7.9375 11.9375 C-9.6140629 8.88023824 -9.36528977 6.4093712 -9 3 C-6.8388936 -0.72190547 -4.01418597 -0.42704106 0 0 Z " fill="#EDEDEE" transform="translate(45,145)"/>
<path d="M0 0 C0.66 0.66 1.32 1.32 2 2 C0.02 2.66 -1.96 3.32 -4 4 C-4.33 5.98 -4.66 7.96 -5 10 C-3.02 10 -1.04 10 1 10 C1 10.99 1 11.98 1 13 C-5.34507042 13.35915493 -5.34507042 13.35915493 -7.9375 11.9375 C-9.6140629 8.88023824 -9.36528977 6.4093712 -9 3 C-6.8388936 -0.72190547 -4.01418597 -0.42704106 0 0 Z " fill="#EDEDEE" transform="translate(311,9)"/>
<path d="M0 0 C2.31 0 4.62 0 7 0 C7 4.95 7 9.9 7 15 C8.32 15 9.64 15 11 15 C11 15.99 11 16.98 11 18 C9.00045254 18.04254356 6.99958364 18.04080783 5 18 C4 17 4 17 3.90234375 13.83984375 C3.91974609 11.90818359 3.91974609 11.90818359 3.9375 9.9375 C3.94652344 8.64714844 3.95554687 7.35679687 3.96484375 6.02734375 C3.97644531 5.02832031 3.98804688 4.02929688 4 3 C2.68 3 1.36 3 0 3 C0 2.01 0 1.02 0 0 Z " fill="#F4F4F4" transform="translate(525,514)"/>
<path d="M0 0 C2.31 0 4.62 0 7 0 C7 4.95 7 9.9 7 15 C8.32 15 9.64 15 11 15 C11 15.99 11 16.98 11 18 C9.00045254 18.04254356 6.99958364 18.04080783 5 18 C4 17 4 17 3.90234375 13.83984375 C3.91974609 11.90818359 3.91974609 11.90818359 3.9375 9.9375 C3.94652344 8.64714844 3.95554687 7.35679688 3.96484375 6.02734375 C3.97644531 5.02832031 3.98804688 4.02929688 4 3 C2.68 3 1.36 3 0 3 C0 2.01 0 1.02 0 0 Z " fill="#F4F4F4" transform="translate(651,4)"/>
<path d="M0 0 C2.31 0 4.62 0 7 0 C7 4.95 7 9.9 7 15 C8.32 15 9.64 15 11 15 C11 15.99 11 16.98 11 18 C9.00045254 18.04254356 6.99958364 18.04080783 5 18 C4 17 4 17 3.90234375 13.83984375 C3.91974609 11.90818359 3.91974609 11.90818359 3.9375 9.9375 C3.94652344 8.64714844 3.95554687 7.35679688 3.96484375 6.02734375 C3.97644531 5.02832031 3.98804688 4.02929688 4 3 C2.68 3 1.36 3 0 3 C0 2.01 0 1.02 0 0 Z " fill="#F4F4F4" transform="translate(553,4)"/>
<path d="M0 0 C2.31 0 4.62 0 7 0 C7 4.95 7 9.9 7 15 C8.32 15 9.64 15 11 15 C11 15.99 11 16.98 11 18 C9.00045254 18.04254356 6.99958364 18.04080783 5 18 C4 17 4 17 3.90234375 13.83984375 C3.91974609 11.90818359 3.91974609 11.90818359 3.9375 9.9375 C3.94652344 8.64714844 3.95554687 7.35679688 3.96484375 6.02734375 C3.97644531 5.02832031 3.98804688 4.02929688 4 3 C2.68 3 1.36 3 0 3 C0 2.01 0 1.02 0 0 Z " fill="#F4F4F4" transform="translate(413,4)"/>
<path d="M0 0 C0.99 0 1.98 0 3 0 C3 3.63 3 7.26 3 11 C4.32 10.67 5.64 10.34 7 10 C7.33 6.7 7.66 3.4 8 0 C8.66 0 9.32 0 10 0 C10 4.29 10 8.58 10 13 C3.9453125 13.1953125 3.9453125 13.1953125 2 13 C0 11 0 11 -0.1953125 8.3984375 C-0.17210938 7.40070312 -0.14890625 6.40296875 -0.125 5.375 C-0.10695313 4.37210938 -0.08890625 3.36921875 -0.0703125 2.3359375 C-0.04710938 1.56507813 -0.02390625 0.79421875 0 0 Z " fill="#B1B2B3" transform="translate(120,587)"/>
<path d="M0 0 C2.475 0.495 2.475 0.495 5 1 C5 3.97 5 6.94 5 10 C4.67 10 4.34 10 4 10 C3.67 12.31 3.34 14.62 3 17 C2.01 17 1.02 17 0 17 C0 11.39 0 5.78 0 0 Z " fill="#E9EAEA" transform="translate(595,5)"/>
<path d="M0 0 C0.66 0 1.32 0 2 0 C0.33846988 5.85659906 -1.47041916 11.4590134 -4 17 C-4.66 17 -5.32 17 -6 17 C-6.83719383 14.70967689 -7.6698929 12.41789043 -8.5 10.125 C-8.73847656 9.47402344 -8.97695312 8.82304688 -9.22265625 8.15234375 C-11 3.2265625 -11 3.2265625 -11 1 C-10.01 1.33 -9.02 1.66 -8 2 C-6.64925014 5.25180522 -5.90696366 8.5880891 -5 12 C-3.35 8.04 -1.7 4.08 0 0 Z " fill="#C1C1C2" transform="translate(88,583)"/>
<path d="M0 0 C0.99 0 1.98 0 3 0 C3 1.98 3 3.96 3 6 C3.66 6 4.32 6 5 6 C4.91621094 6.62648437 4.83242188 7.25296875 4.74609375 7.8984375 C4.64425781 8.71570313 4.54242188 9.53296875 4.4375 10.375 C4.33308594 11.18710938 4.22867188 11.99921875 4.12109375 12.8359375 C3.81762672 15.04899186 3.81762672 15.04899186 5 17 C3.35 17.33 1.7 17.66 0 18 C0 12.06 0 6.12 0 0 Z " fill="#FDFDFD" transform="translate(50,140)"/>
<path d="M0 0 C2.475 0.495 2.475 0.495 5 1 C4.87431641 1.93972656 4.87431641 1.93972656 4.74609375 2.8984375 C4.64425781 3.71570313 4.54242187 4.53296875 4.4375 5.375 C4.33308594 6.18710938 4.22867188 6.99921875 4.12109375 7.8359375 C3.81762672 10.04899186 3.81762672 10.04899186 5 12 C4.34 12 3.68 12 3 12 C3 13.98 3 15.96 3 18 C2.01 18 1.02 18 0 18 C0 12.06 0 6.12 0 0 Z " fill="#FAFAFA" transform="translate(540,9)"/>
<path d="M0 0 C2.475 0.495 2.475 0.495 5 1 C4.87431641 1.93972656 4.87431641 1.93972656 4.74609375 2.8984375 C4.64425781 3.71570313 4.54242187 4.53296875 4.4375 5.375 C4.33308594 6.18710938 4.22867188 6.99921875 4.12109375 7.8359375 C3.81762672 10.04899186 3.81762672 10.04899186 5 12 C4.34 12 3.68 12 3 12 C3 13.98 3 15.96 3 18 C2.01 18 1.02 18 0 18 C0 12.06 0 6.12 0 0 Z " fill="#FAFAFA" transform="translate(526,9)"/>
<path d="M0 0 C3.28453 0 5.84698314 0.23304995 9 1 C10 2 10 2 10.09765625 4.50390625 C10.08605469 5.51324219 10.07445312 6.52257812 10.0625 7.5625 C10.05347656 8.57441406 10.04445313 9.58632813 10.03515625 10.62890625 C10.02355469 11.41136719 10.01195312 12.19382812 10 13 C9.34 13 8.68 13 8 13 C8 9.37 8 5.74 8 2 C6.02 2.33 4.04 2.66 2 3 C2 6.3 2 9.6 2 13 C1.34 13 0.68 13 0 13 C0 8.71 0 4.42 0 0 Z " fill="#BFBFC0" transform="translate(288,587)"/>
<path d="M0 0 C0 0.99 0 1.98 0 3 C-0.99 3.495 -0.99 3.495 -2 4 C-2.65772428 7.02934491 -2.65772428 7.02934491 -3 10 C-2.01 10.33 -1.02 10.66 0 11 C0 11.66 0 12.32 0 13 C-2.375 13.1875 -2.375 13.1875 -5 13 C-7.46324069 9.30513897 -7.38991688 7.36706908 -7 3 C-4.8671951 -0.30584759 -4.13306865 0 0 0 Z " fill="#EEEEEE" transform="translate(56,451)"/>
<path d="M0 0 C0 0.99 0 1.98 0 3 C-0.99 3.495 -0.99 3.495 -2 4 C-2.65772428 7.02934491 -2.65772428 7.02934491 -3 10 C-2.01 10.33 -1.02 10.66 0 11 C0 11.66 0 12.32 0 13 C-2.375 13.1875 -2.375 13.1875 -5 13 C-7.46324069 9.30513897 -7.38991688 7.36706908 -7 3 C-4.8671951 -0.30584759 -4.13306865 0 0 0 Z " fill="#EEEEEE" transform="translate(630,9)"/>
<path d="M0 0 C2.31 0 4.62 0 7 0 C7 0.66 7 1.32 7 2 C5.35 2 3.7 2 2 2 C2 3.98 2 5.96 2 8 C3.98 7.67 5.96 7.34 8 7 C7.67 7.66 7.34 8.32 7 9 C5.35 9 3.7 9 2 9 C2 11.31 2 13.62 2 16 C3.32 16.33 4.64 16.66 6 17 C4.02 17 2.04 17 0 17 C0 11.39 0 5.78 0 0 Z " fill="#BABABB" transform="translate(8,583)"/>
<path d="M0 0 C0.66 0 1.32 0 2 0 C2 0.99 2 1.98 2 3 C3.32 3 4.64 3 6 3 C6 3.66 6 4.32 6 5 C4.68 5 3.36 5 2 5 C2 7.97 2 10.94 2 14 C3.65 14 5.3 14 7 14 C7 14.66 7 15.32 7 16 C5.00045254 16.04254356 2.99958364 16.04080783 1 16 C0 15 0 15 -0.09765625 12.71484375 C-0.08605469 11.79832031 -0.07445312 10.88179687 -0.0625 9.9375 C-0.05347656 9.01839844 -0.04445312 8.09929688 -0.03515625 7.15234375 C-0.02355469 6.44207031 -0.01195312 5.73179687 0 5 C-0.99 5 -1.98 5 -3 5 C-3 4.34 -3 3.68 -3 3 C-2.01 3 -1.02 3 0 3 C0 2.01 0 1.02 0 0 Z " fill="#B7B7B8" transform="translate(53,584)"/>
<path d="M0 0 C0.99 0 1.98 0 3 0 C3 5.94 3 11.88 3 18 C2.01 18 1.02 18 0 18 C0 12.06 0 6.12 0 0 Z " fill="#FEFEFE" transform="translate(92,140)"/>
<path d="M0 0 C1.67542976 0.28604898 3.34385343 0.61781233 5 1 C5 3.64 5 6.28 5 9 C3.33388095 9.042721 1.66617115 9.04063832 0 9 C-1 8 -1 8 -1.125 4.5 C-1 1 -1 1 0 0 Z " fill="#1D2126" transform="translate(179,589)"/>
<path d="M0 0 C1.98 0 3.96 0 6 0 C6 5.28 6 10.56 6 16 C7.65 16 9.3 16 11 16 C11 16.66 11 17.32 11 18 C8.625 18.125 8.625 18.125 6 18 C4 16 4 16 3.8046875 12.7421875 C3.82789063 11.46601562 3.85109375 10.18984375 3.875 8.875 C3.89304688 7.59367188 3.91109375 6.31234375 3.9296875 4.9921875 C3.95289063 4.00476563 3.97609375 3.01734375 4 2 C2.68 2 1.36 2 0 2 C0 1.34 0 0.68 0 0 Z " fill="#B6B6B7" transform="translate(217,582)"/>
<path d="M0 0 C1.98 0 3.96 0 6 0 C6 5.28 6 10.56 6 16 C7.65 16 9.3 16 11 16 C11 16.66 11 17.32 11 18 C8.625 18.125 8.625 18.125 6 18 C4 16 4 16 3.8046875 12.7421875 C3.82789062 11.46601562 3.85109375 10.18984375 3.875 8.875 C3.89304687 7.59367188 3.91109375 6.31234375 3.9296875 4.9921875 C3.95289062 4.00476563 3.97609375 3.01734375 4 2 C2.68 2 1.36 2 0 2 C0 1.34 0 0.68 0 0 Z " fill="#B6B6B7" transform="translate(105,582)"/>
<path d="M0 0 C1.67542976 0.28604898 3.34385343 0.61781233 5 1 C5 3.31 5 5.62 5 8 C3.34385343 8.38218767 1.67542976 8.71395102 0 9 C-1 8 -1 8 -1.125 4.5 C-1 1 -1 1 0 0 Z " fill="#1A1E23" transform="translate(193,589)"/>
<path d="M0 0 C0.598125 0.20625 1.19625 0.4125 1.8125 0.625 C2.74673645 3.63531744 2.85699911 4.49150268 1.8125 7.625 C-0.18704746 7.66754356 -2.18791636 7.66580783 -4.1875 7.625 C-5.1875 6.625 -5.1875 6.625 -5.4375 4.1875 C-5.355 3.341875 -5.2725 2.49625 -5.1875 1.625 C-2.1875 -0.375 -2.1875 -0.375 0 0 Z " fill="#C0C1C3" transform="translate(516.1875,524.375)"/>
<path d="M0 0 C0.598125 0.20625 1.19625 0.4125 1.8125 0.625 C2.74673645 3.63531744 2.85699911 4.49150268 1.8125 7.625 C-0.18704746 7.66754356 -2.18791636 7.66580783 -4.1875 7.625 C-5.1875 6.625 -5.1875 6.625 -5.4375 4.1875 C-5.355 3.341875 -5.2725 2.49625 -5.1875 1.625 C-2.1875 -0.375 -2.1875 -0.375 0 0 Z " fill="#C0C1C3" transform="translate(292.1875,524.375)"/>
<path d="M0 0 C0.99 0 1.98 0 3 0 C3 3.3 3 6.6 3 10 C4.65 10.33 6.3 10.66 8 11 C7.67 11.66 7.34 12.32 7 13 C5.00045254 13.04254356 2.99958364 13.04080783 1 13 C0 12 0 12 -0.09765625 9.27734375 C-0.08605469 8.17519531 -0.07445312 7.07304688 -0.0625 5.9375 C-0.05347656 4.83277344 -0.04445313 3.72804688 -0.03515625 2.58984375 C-0.02355469 1.73519531 -0.01195312 0.88054688 0 0 Z " fill="#F3F3F3" transform="translate(540,519)"/>
<path d="M0 0 C0.99 0 1.98 0 3 0 C3 3.3 3 6.6 3 10 C4.65 10.33 6.3 10.66 8 11 C7.67 11.66 7.34 12.32 7 13 C5.00045254 13.04254356 2.99958364 13.04080783 1 13 C0 12 0 12 -0.09765625 9.27734375 C-0.08605469 8.17519531 -0.07445312 7.07304687 -0.0625 5.9375 C-0.05347656 4.83277344 -0.04445312 3.72804688 -0.03515625 2.58984375 C-0.02355469 1.73519531 -0.01195312 0.88054687 0 0 Z " fill="#F3F3F3" transform="translate(36,451)"/>
<path d="M0 0 C0.598125 0.20625 1.19625 0.4125 1.8125 0.625 C2.74673645 3.63531744 2.85699911 4.49150268 1.8125 7.625 C-0.18704746 7.66754356 -2.18791636 7.66580783 -4.1875 7.625 C-5.1875 6.625 -5.1875 6.625 -5.4375 4.1875 C-5.355 3.341875 -5.2725 2.49625 -5.1875 1.625 C-2.1875 -0.375 -2.1875 -0.375 0 0 Z " fill="#C0C1C3" transform="translate(40.1875,252.375)"/>
<path d="M0 0 C0.598125 0.20625 1.19625 0.4125 1.8125 0.625 C2.74673645 3.63531744 2.85699911 4.49150268 1.8125 7.625 C-0.18704746 7.66754356 -2.18791636 7.66580783 -4.1875 7.625 C-5.1875 6.625 -5.1875 6.625 -5.4375 4.1875 C-5.355 3.341875 -5.2725 2.49625 -5.1875 1.625 C-2.1875 -0.375 -2.1875 -0.375 0 0 Z " fill="#C0C1C3" transform="translate(26.1875,150.375)"/>
<path d="M0 0 C0.598125 0.20625 1.19625 0.4125 1.8125 0.625 C2.74673645 3.63531744 2.85699911 4.49150268 1.8125 7.625 C-0.18704746 7.66754356 -2.18791636 7.66580783 -4.1875 7.625 C-5.1875 6.625 -5.1875 6.625 -5.4375 4.1875 C-5.355 3.341875 -5.2725 2.49625 -5.1875 1.625 C-2.1875 -0.375 -2.1875 -0.375 0 0 Z " fill="#C0C1C3" transform="translate(12.1875,48.375)"/>
<path d="M0 0 C0.598125 0.20625 1.19625 0.4125 1.8125 0.625 C2.74673645 3.63531744 2.85699911 4.49150268 1.8125 7.625 C-0.18704746 7.66754356 -2.18791636 7.66580783 -4.1875 7.625 C-5.1875 6.625 -5.1875 6.625 -5.4375 4.1875 C-5.355 3.341875 -5.2725 2.49625 -5.1875 1.625 C-2.1875 -0.375 -2.1875 -0.375 0 0 Z " fill="#C0C1C3" transform="translate(404.1875,14.375)"/>
<path d="M0 0 C0.598125 0.20625 1.19625 0.4125 1.8125 0.625 C2.74673645 3.63531744 2.85699911 4.49150268 1.8125 7.625 C-0.18704746 7.66754356 -2.18791636 7.66580783 -4.1875 7.625 C-5.1875 6.625 -5.1875 6.625 -5.4375 4.1875 C-5.355 3.341875 -5.2725 2.49625 -5.1875 1.625 C-2.1875 -0.375 -2.1875 -0.375 0 0 Z " fill="#C0C1C3" transform="translate(278.1875,14.375)"/>
<path d="M0 0 C0.99 0 1.98 0 3 0 C3 3.3 3 6.6 3 10 C4.65 10.33 6.3 10.66 8 11 C7.67 11.66 7.34 12.32 7 13 C5.00045254 13.04254356 2.99958364 13.04080783 1 13 C0 12 0 12 -0.09765625 9.27734375 C-0.08605469 8.17519531 -0.07445312 7.07304687 -0.0625 5.9375 C-0.05347656 4.83277344 -0.04445313 3.72804688 -0.03515625 2.58984375 C-0.02355469 1.73519531 -0.01195312 0.88054688 0 0 Z " fill="#F3F3F3" transform="translate(428,9)"/>
<path d="M0 0 C1.98 0 3.96 0 6 0 C6 3.63 6 7.26 6 11 C6.99 11 7.98 11 9 11 C9 11.66 9 12.32 9 13 C6.03 13 3.06 13 0 13 C0 12.34 0 11.68 0 11 C1.32 11 2.64 11 4 11 C4 8.03 4 5.06 4 2 C2.68 2 1.36 2 0 2 C0 1.34 0 0.68 0 0 Z " fill="#BCBDBE" transform="translate(303,587)"/>
<path d="M0 0 C1.98 0 3.96 0 6 0 C6 3.63 6 7.26 6 11 C6.99 11 7.98 11 9 11 C9 11.66 9 12.32 9 13 C6.03 13 3.06 13 0 13 C0 12.34 0 11.68 0 11 C1.32 11 2.64 11 4 11 C4 8.03 4 5.06 4 2 C2.68 2 1.36 2 0 2 C0 1.34 0 0.68 0 0 Z " fill="#BCBDBE" transform="translate(275,587)"/>
<path d="M0 0 C2.31 0 4.62 0 7 0 C6 3 6 3 4 4 C3.53348793 6.12576782 3.53348793 6.12576782 3.375 8.5625 C3.30023438 9.38878906 3.22546875 10.21507812 3.1484375 11.06640625 C3.09945313 11.70449219 3.05046875 12.34257813 3 13 C2.01 13 1.02 13 0 13 C0 8.71 0 4.42 0 0 Z " fill="#F6F6F6" transform="translate(302,519)"/>
<path d="M0 0 C2.31 0 4.62 0 7 0 C6 3 6 3 4 4 C3.53348793 6.12576782 3.53348793 6.12576782 3.375 8.5625 C3.30023438 9.38878906 3.22546875 10.21507812 3.1484375 11.06640625 C3.09945312 11.70449219 3.05046875 12.34257812 3 13 C2.01 13 1.02 13 0 13 C0 8.71 0 4.42 0 0 Z " fill="#F6F6F6" transform="translate(36,349)"/>
<path d="M0 0 C0.99 0.33 1.98 0.66 3 1 C3 5.29 3 9.58 3 14 C2.34 13.01 1.68 12.02 1 11 C-0.32 11 -1.64 11 -3 11 C-2.88590407 9.54077307 -2.75834456 8.08259402 -2.625 6.625 C-2.55539062 5.81289062 -2.48578125 5.00078125 -2.4140625 4.1640625 C-2 2 -2 2 0 0 Z " fill="#C6C7C9" transform="translate(602,8)"/>
<path d="M0 0 C2.31 0 4.62 0 7 0 C6 3 6 3 4 4 C3.53348793 6.12576782 3.53348793 6.12576782 3.375 8.5625 C3.30023438 9.38878906 3.22546875 10.21507812 3.1484375 11.06640625 C3.09945313 11.70449219 3.05046875 12.34257812 3 13 C2.01 13 1.02 13 0 13 C0 8.71 0 4.42 0 0 Z " fill="#F6F6F6" transform="translate(288,9)"/>
<path d="M0 0 C1.32 0 2.64 0 4 0 C4.33 2.97 4.66 5.94 5 9 C4.34 8.01 3.68 7.02 3 6 C2.67 9.3 2.34 12.6 2 16 C1.34 16 0.68 16 0 16 C0 10.72 0 5.44 0 0 Z " fill="#C2C3C3" transform="translate(161,584)"/>
<path d="M0 0 C2.31 0 4.62 0 7 0 C6.01 0.495 6.01 0.495 5 1 C5 1.66 5 2.32 5 3 C4.34 3 3.68 3 3 3 C3 6.3 3 9.6 3 13 C2.01 13 1.02 13 0 13 C0 8.71 0 4.42 0 0 Z " fill="#F5F6F6" transform="translate(273,519)"/>
<path d="M0 0 C2.31 0 4.62 0 7 0 C6.01 0.495 6.01 0.495 5 1 C5 1.66 5 2.32 5 3 C4.34 3 3.68 3 3 3 C3 6.3 3 9.6 3 13 C2.01 13 1.02 13 0 13 C0 8.71 0 4.42 0 0 Z " fill="#F5F6F6" transform="translate(7,349)"/>
<path d="M0 0 C2.31 0 4.62 0 7 0 C6.01 0.495 6.01 0.495 5 1 C5 1.66 5 2.32 5 3 C4.34 3 3.68 3 3 3 C3 6.3 3 9.6 3 13 C2.01 13 1.02 13 0 13 C0 8.71 0 4.42 0 0 Z " fill="#F5F6F6" transform="translate(21,247)"/>
<path d="M0 0 C2.31 0 4.62 0 7 0 C6.01 0.495 6.01 0.495 5 1 C5 1.66 5 2.32 5 3 C4.34 3 3.68 3 3 3 C3 6.3 3 9.6 3 13 C2.01 13 1.02 13 0 13 C0 8.71 0 4.42 0 0 Z " fill="#F5F6F6" transform="translate(7,145)"/>
<path d="M0 0 C2.31 0 4.62 0 7 0 C6.01 0.495 6.01 0.495 5 1 C5 1.66 5 2.32 5 3 C4.34 3 3.68 3 3 3 C3 6.3 3 9.6 3 13 C2.01 13 1.02 13 0 13 C0 8.71 0 4.42 0 0 Z " fill="#F5F6F6" transform="translate(259,9)"/>
<path d="M0 0 C2.125 0.375 2.125 0.375 4 1 C5.125 4.75 5.125 4.75 4 7 C2.35 7 0.7 7 -1 7 C-1.625 4.625 -1.625 4.625 -2 2 C-1.34 1.34 -0.68 0.68 0 0 Z " fill="#D0D1D2" transform="translate(680,515)"/>
<path d="M0 0 C0.66 0 1.32 0 2 0 C0.65150163 4.35970831 -1.04907846 8.31341438 -3.125 12.375 C-3.66382813 13.43460938 -4.20265625 14.49421875 -4.7578125 15.5859375 C-5.16773438 16.38257813 -5.57765625 17.17921875 -6 18 C-6.66 17.34 -7.32 16.68 -8 16 C-5.36 10.72 -2.72 5.44 0 0 Z " fill="#E6E6E7" transform="translate(688,515)"/>
<path d="M0 0 C2.375 -0.125 2.375 -0.125 5 0 C5.66 0.66 6.32 1.32 7 2 C6.625 4.125 6.625 4.125 6 6 C4.02 6 2.04 6 0 6 C0 4.02 0 2.04 0 0 Z " fill="#2E3236" transform="translate(10,592)"/>
<path d="M0 0 C1.67542976 0.28604898 3.34385343 0.61781233 5 1 C5 2.65 5 4.3 5 6 C3.34385343 6.38218767 1.67542976 6.71395102 0 7 C-1 6 -1 6 -1.125 3.5 C-1 1 -1 1 0 0 Z " fill="#D6D6D7" transform="translate(687,525)"/>
<path d="M0 0 C0.99 0.33 1.98 0.66 3 1 C3 4.63 3 8.26 3 12 C2.01 12 1.02 12 0 12 C0 8.04 0 4.08 0 0 Z " fill="#E1E2E2" transform="translate(278,520)"/>
<path d="M0 0 C0.99 0.33 1.98 0.66 3 1 C3 4.63 3 8.26 3 12 C2.01 12 1.02 12 0 12 C0 8.04 0 4.08 0 0 Z " fill="#E1E2E2" transform="translate(12,350)"/>
<path d="M0 0 C0.99 0.33 1.98 0.66 3 1 C3 4.63 3 8.26 3 12 C2.01 12 1.02 12 0 12 C0 8.04 0 4.08 0 0 Z " fill="#E1E2E2" transform="translate(26,248)"/>
<path d="M0 0 C0.99 0.33 1.98 0.66 3 1 C3 4.63 3 8.26 3 12 C2.01 12 1.02 12 0 12 C0 8.04 0 4.08 0 0 Z " fill="#E1E2E2" transform="translate(12,146)"/>
<path d="M0 0 C0.99 0.33 1.98 0.66 3 1 C3 4.63 3 8.26 3 12 C2.01 12 1.02 12 0 12 C0 8.04 0 4.08 0 0 Z " fill="#E1E2E2" transform="translate(264,10)"/>
<path d="M0 0 C0.99 0 1.98 0 3 0 C3 1.65 3 3.3 3 5 C2.01 4.67 1.02 4.34 0 4 C0 4.99 0 5.98 0 7 C0.99 7 1.98 7 3 7 C3 8.32 3 9.64 3 11 C1.68 10.67 0.36 10.34 -1 10 C-1.02689216 8.52093108 -1.04634621 7.04172517 -1.0625 5.5625 C-1.07410156 4.73878906 -1.08570313 3.91507812 -1.09765625 3.06640625 C-1 1 -1 1 0 0 Z " fill="#23272C" transform="translate(656,450)"/>
<path d="M0 0 C0.99 0 1.98 0 3 0 C3 1.65 3 3.3 3 5 C2.01 4.67 1.02 4.34 0 4 C0 4.99 0 5.98 0 7 C0.99 7 1.98 7 3 7 C3 8.32 3 9.64 3 11 C1.68 10.67 0.36 10.34 -1 10 C-1.02689216 8.52093108 -1.04634621 7.04172517 -1.0625 5.5625 C-1.07410156 4.73878906 -1.08570313 3.91507812 -1.09765625 3.06640625 C-1 1 -1 1 0 0 Z " fill="#23272C" transform="translate(614,450)"/>
<path d="M0 0 C0.99 0 1.98 0 3 0 C3 1.65 3 3.3 3 5 C2.01 4.67 1.02 4.34 0 4 C0 4.99 0 5.98 0 7 C0.99 7 1.98 7 3 7 C3 8.32 3 9.64 3 11 C1.68 10.67 0.36 10.34 -1 10 C-1.02689216 8.52093108 -1.04634621 7.04172517 -1.0625 5.5625 C-1.07410156 4.73878906 -1.08570313 3.91507812 -1.09765625 3.06640625 C-1 1 -1 1 0 0 Z " fill="#23272C" transform="translate(432,348)"/>
<path d="M0 0 C0.99 0 1.98 0 3 0 C3 1.65 3 3.3 3 5 C2.01 4.67 1.02 4.34 0 4 C0 4.99 0 5.98 0 7 C0.99 7 1.98 7 3 7 C3 8.32 3 9.64 3 11 C1.68 10.67 0.36 10.34 -1 10 C-1.02689216 8.52093108 -1.04634621 7.04172517 -1.0625 5.5625 C-1.07410156 4.73878906 -1.08570313 3.91507812 -1.09765625 3.06640625 C-1 1 -1 1 0 0 Z " fill="#23272C" transform="translate(194,280)"/>
<path d="M0 0 C0.99 0 1.98 0 3 0 C3 1.65 3 3.3 3 5 C2.01 4.67 1.02 4.34 0 4 C0 4.99 0 5.98 0 7 C0.99 7 1.98 7 3 7 C3 8.32 3 9.64 3 11 C1.68 10.67 0.36 10.34 -1 10 C-1.02689216 8.52093108 -1.04634621 7.04172517 -1.0625 5.5625 C-1.07410156 4.73878906 -1.08570313 3.91507813 -1.09765625 3.06640625 C-1 1 -1 1 0 0 Z " fill="#23272C" transform="translate(418,246)"/>
<path d="M0 0 C0.99 0 1.98 0 3 0 C3 1.65 3 3.3 3 5 C2.01 4.67 1.02 4.34 0 4 C0 4.99 0 5.98 0 7 C0.99 7 1.98 7 3 7 C3 8.32 3 9.64 3 11 C1.68 10.67 0.36 10.34 -1 10 C-1.02689216 8.52093108 -1.04634621 7.04172517 -1.0625 5.5625 C-1.07410156 4.73878906 -1.08570313 3.91507813 -1.09765625 3.06640625 C-1 1 -1 1 0 0 Z " fill="#23272C" transform="translate(586,144)"/>
<path d="M0 0 C0.99 0 1.98 0 3 0 C3 1.65 3 3.3 3 5 C2.01 4.67 1.02 4.34 0 4 C0 4.99 0 5.98 0 7 C0.99 7 1.98 7 3 7 C3 8.32 3 9.64 3 11 C1.68 10.67 0.36 10.34 -1 10 C-1.02689216 8.52093108 -1.04634621 7.04172517 -1.0625 5.5625 C-1.07410156 4.73878906 -1.08570313 3.91507813 -1.09765625 3.06640625 C-1 1 -1 1 0 0 Z " fill="#23272C" transform="translate(544,144)"/>
<path d="M0 0 C0.99 0 1.98 0 3 0 C3 1.65 3 3.3 3 5 C2.01 4.67 1.02 4.34 0 4 C0 4.99 0 5.98 0 7 C0.99 7 1.98 7 3 7 C3 8.32 3 9.64 3 11 C1.68 10.67 0.36 10.34 -1 10 C-1.02689216 8.52093108 -1.04634621 7.04172517 -1.0625 5.5625 C-1.07410156 4.73878906 -1.08570313 3.91507813 -1.09765625 3.06640625 C-1 1 -1 1 0 0 Z " fill="#23272C" transform="translate(418,42)"/>
<path d="M0 0 C0.66 0.66 1.32 1.32 2 2 C1.7578125 4.6015625 1.7578125 4.6015625 1.125 7.625 C0.92132813 8.62789062 0.71765625 9.63078125 0.5078125 10.6640625 C0.34023437 11.43492187 0.17265625 12.20578125 0 13 C-0.99 13 -1.98 13 -3 13 C-3.6875 11.3125 -3.6875 11.3125 -4 9 C-2.625 6.5 -2.625 6.5 -1 4 C-0.30420546 1.80869466 -0.30420546 1.80869466 0 0 Z " fill="#AAABAC" transform="translate(169,584)"/>
<path d="M0 0 C2.97 0.495 2.97 0.495 6 1 C6 2.32 6 3.64 6 5 C4.02 5.33 2.04 5.66 0 6 C0 4.02 0 2.04 0 0 Z " fill="#363A3E" transform="translate(10,585)"/>
<path d="M0 0 C0.66 0 1.32 0 2 0 C1.54636829 1.58468677 1.08688548 3.16769924 0.625 4.75 C0.36976562 5.63171875 0.11453125 6.5134375 -0.1484375 7.421875 C-0.9209934 9.76080572 -1.83625676 11.83442562 -3 14 C-3.99 14 -4.98 14 -6 14 C-5.71382813 13.44828125 -5.42765625 12.8965625 -5.1328125 12.328125 C-3.92260849 9.84094711 -2.8904694 7.32252247 -1.875 4.75 C-1.52179688 3.85796875 -1.16859375 2.9659375 -0.8046875 2.046875 C-0.53914063 1.37140625 -0.27359375 0.6959375 0 0 Z " fill="#B3B4B4" transform="translate(88,583)"/>
<path d="M0 0 C0.99 0 1.98 0 3 0 C3 2.31 3 4.62 3 7 C1.68 7 0.36 7 -1 7 C-1.04254356 5.00045254 -1.04080783 2.99958364 -1 1 C-0.67 0.67 -0.34 0.34 0 0 Z " fill="#25292D" transform="translate(614,522)"/>
<path d="M0 0 C0.99 0 1.98 0 3 0 C3 2.31 3 4.62 3 7 C1.68 7 0.36 7 -1 7 C-1.04254356 5.00045254 -1.04080783 2.99958364 -1 1 C-0.67 0.67 -0.34 0.34 0 0 Z " fill="#25292D" transform="translate(390,522)"/>
<path d="M0 0 C0.99 0 1.98 0 3 0 C3 2.31 3 4.62 3 7 C1.68 7 0.36 7 -1 7 C-1.04254356 5.00045254 -1.04080783 2.99958364 -1 1 C-0.67 0.67 -0.34 0.34 0 0 Z " fill="#25292D" transform="translate(250,522)"/>
<path d="M0 0 C0.99 0 1.98 0 3 0 C3 2.31 3 4.62 3 7 C1.68 7 0.36 7 -1 7 C-1.04254356 5.00045254 -1.04080783 2.99958364 -1 1 C-0.67 0.67 -0.34 0.34 0 0 Z " fill="#25292D" transform="translate(82,454)"/>
<path d="M0 0 C0.99 0 1.98 0 3 0 C3 2.31 3 4.62 3 7 C1.68 7 0.36 7 -1 7 C-1.04254356 5.00045254 -1.04080783 2.99958364 -1 1 C-0.67 0.67 -0.34 0.34 0 0 Z " fill="#25292D" transform="translate(82,148)"/>
<path d="M0 0 C0.99 0 1.98 0 3 0 C3 2.31 3 4.62 3 7 C1.68 7 0.36 7 -1 7 C-1.04254356 5.00045254 -1.04080783 2.99958364 -1 1 C-0.67 0.67 -0.34 0.34 0 0 Z " fill="#25292D" transform="translate(68,148)"/>
<path d="M0 0 C0.99 0 1.98 0 3 0 C3 2.31 3 4.62 3 7 C1.68 7 0.36 7 -1 7 C-1.04254356 5.00045254 -1.04080783 2.99958364 -1 1 C-0.67 0.67 -0.34 0.34 0 0 Z " fill="#25292D" transform="translate(614,12)"/>
<path d="M0 0 C0.99 0 1.98 0 3 0 C3 2.31 3 4.62 3 7 C1.68 7 0.36 7 -1 7 C-1.04254356 5.00045254 -1.04080783 2.99958364 -1 1 C-0.67 0.67 -0.34 0.34 0 0 Z " fill="#25292D" transform="translate(474,12)"/>
<path d="M0 0 C0.99 0 1.98 0 3 0 C3 2.31 3 4.62 3 7 C1.68 7 0.36 7 -1 7 C-1.04254356 5.00045254 -1.04080783 2.99958364 -1 1 C-0.67 0.67 -0.34 0.34 0 0 Z " fill="#25292D" transform="translate(236,12)"/>
<path d="M0 0 C0.99 0 1.98 0 3 0 C3 2.31 3 4.62 3 7 C1.68 7 0.36 7 -1 7 C-1.04254356 5.00045254 -1.04080783 2.99958364 -1 1 C-0.67 0.67 -0.34 0.34 0 0 Z " fill="#22262A" transform="translate(54,454)"/>
<path d="M0 0 C0.99 0 1.98 0 3 0 C3 2.31 3 4.62 3 7 C1.68 7 0.36 7 -1 7 C-1.04254356 5.00045254 -1.04080783 2.99958364 -1 1 C-0.67 0.67 -0.34 0.34 0 0 Z " fill="#303438" transform="translate(54,148)"/>
<path d="M0 0 C0.99 0 1.98 0 3 0 C3 2.31 3 4.62 3 7 C1.68 7 0.36 7 -1 7 C-1.04254356 5.00045254 -1.04080783 2.99958364 -1 1 C-0.67 0.67 -0.34 0.34 0 0 Z " fill="#313439" transform="translate(544,12)"/>
<path d="M0 0 C0.99 0 1.98 0 3 0 C3 2.31 3 4.62 3 7 C1.68 7 0.36 7 -1 7 C-1.04254356 5.00045254 -1.04080783 2.99958364 -1 1 C-0.67 0.67 -0.34 0.34 0 0 Z " fill="#313439" transform="translate(530,12)"/>
<path d="M0 0 C0.99 0 1.98 0 3 0 C3 2.31 3 4.62 3 7 C1.68 7 0.36 7 -1 7 C-1.04254356 5.00045254 -1.04080783 2.99958364 -1 1 C-0.67 0.67 -0.34 0.34 0 0 Z " fill="#22262A" transform="translate(628,12)"/>
<path d="M0 0 C1.32 0 2.64 0 4 0 C4.625 1.875 4.625 1.875 5 4 C4.34 4.66 3.68 5.32 3 6 C2.01 6 1.02 6 0 6 C0 4.02 0 2.04 0 0 Z " fill="#494C50" transform="translate(193,518)"/>
<path d="M0 0 C1.32 0 2.64 0 4 0 C4.625 1.875 4.625 1.875 5 4 C4.34 4.66 3.68 5.32 3 6 C2.01 6 1.02 6 0 6 C0 4.02 0 2.04 0 0 Z " fill="#494C50" transform="translate(179,8)"/>
<path d="M0 0 C0.33 0 0.66 0 1 0 C1.33 2.64 1.66 5.28 2 8 C3.65 8.33 5.3 8.66 7 9 C7 9.66 7 10.32 7 11 C5.00045254 11.04254356 2.99958364 11.04080783 1 11 C0 10 0 10 -0.09765625 7.71484375 C-0.08605469 6.79832031 -0.07445312 5.88179687 -0.0625 4.9375 C-0.05347656 4.01839844 -0.04445312 3.09929688 -0.03515625 2.15234375 C-0.02355469 1.44207031 -0.01195312 0.73179687 0 0 Z " fill="#C3C3C4" transform="translate(53,589)"/>
<path d="M0 0 C1.98 0.495 1.98 0.495 4 1 C3.67 2.32 3.34 3.64 3 5 C1.68 5 0.36 5 -1 5 C-0.67 3.35 -0.34 1.7 0 0 Z " fill="#E7E8E8" transform="translate(180,493)"/>
<path d="M0 0 C1.98 0.495 1.98 0.495 4 1 C3.67 2.32 3.34 3.64 3 5 C1.68 5 0.36 5 -1 5 C-0.67 3.35 -0.34 1.7 0 0 Z " fill="#E7E8E8" transform="translate(628,459)"/>
<path d="M0 0 C1.98 0.495 1.98 0.495 4 1 C3.67 2.32 3.34 3.64 3 5 C1.68 5 0.36 5 -1 5 C-0.67 3.35 -0.34 1.7 0 0 Z " fill="#E7E8E8" transform="translate(194,391)"/>
<path d="M0 0 C1.98 0.495 1.98 0.495 4 1 C3.67 2.32 3.34 3.64 3 5 C1.68 5 0.36 5 -1 5 C-0.67 3.35 -0.34 1.7 0 0 Z " fill="#E7E8E8" transform="translate(404,357)"/>
<path d="M0 0 C1.98 0.495 1.98 0.495 4 1 C3.67 2.32 3.34 3.64 3 5 C1.68 5 0.36 5 -1 5 C-0.67 3.35 -0.34 1.7 0 0 Z " fill="#E7E8E8" transform="translate(166,289)"/>
<path d="M0 0 C1.98 0.495 1.98 0.495 4 1 C3.67 2.32 3.34 3.64 3 5 C1.68 5 0.36 5 -1 5 C-0.67 3.35 -0.34 1.7 0 0 Z " fill="#E7E8E8" transform="translate(390,255)"/>
<path d="M0 0 C1.98 0.495 1.98 0.495 4 1 C3.67 2.32 3.34 3.64 3 5 C1.68 5 0.36 5 -1 5 C-0.67 3.35 -0.34 1.7 0 0 Z " fill="#E7E8E8" transform="translate(180,187)"/>
<path d="M0 0 C1.98 0.495 1.98 0.495 4 1 C3.67 2.32 3.34 3.64 3 5 C1.68 5 0.36 5 -1 5 C-0.67 3.35 -0.34 1.7 0 0 Z " fill="#E7E8E8" transform="translate(558,153)"/>
<path d="M0 0 C1.98 0.495 1.98 0.495 4 1 C3.67 2.32 3.34 3.64 3 5 C1.68 5 0.36 5 -1 5 C-0.67 3.35 -0.34 1.7 0 0 Z " fill="#E7E8E8" transform="translate(180,85)"/>
<path d="M0 0 C1.98 0.495 1.98 0.495 4 1 C3.67 2.32 3.34 3.64 3 5 C1.68 5 0.36 5 -1 5 C-0.67 3.35 -0.34 1.7 0 0 Z " fill="#E7E8E8" transform="translate(390,51)"/>
<path d="M0 0 C1.65 0.33 3.3 0.66 5 1 C5 1.99 5 2.98 5 4 C3.02 4 1.04 4 -1 4 C-0.67 2.68 -0.34 1.36 0 0 Z " fill="#25282D" transform="translate(207,589)"/>
<path d="M0 0 C1.65 0.33 3.3 0.66 5 1 C5 1.99 5 2.98 5 4 C3.02 4 1.04 4 -1 4 C-0.67 2.68 -0.34 1.36 0 0 Z " fill="#25282D" transform="translate(137,589)"/>
<path d="M0 0 C1.65 0.33 3.3 0.66 5 1 C5 1.99 5 2.98 5 4 C3.02 4 1.04 4 -1 4 C-0.67 2.68 -0.34 1.36 0 0 Z " fill="#25282D" transform="translate(25,589)"/>
<path d="M0 0 C0.99 0 1.98 0 3 0 C3.33 1.98 3.66 3.96 4 6 C2.68 5.67 1.36 5.34 0 5 C0 3.35 0 1.7 0 0 Z " fill="#F4F4F5" transform="translate(645,520)"/>
<path d="M0 0 C0.99 0 1.98 0 3 0 C3.33 1.98 3.66 3.96 4 6 C2.68 5.67 1.36 5.34 0 5 C0 3.35 0 1.7 0 0 Z " fill="#F4F4F5" transform="translate(561,520)"/>
<path d="M0 0 C0.99 0 1.98 0 3 0 C3.33 1.98 3.66 3.96 4 6 C2.68 5.67 1.36 5.34 0 5 C0 3.35 0 1.7 0 0 Z " fill="#F4F4F5" transform="translate(421,520)"/>
<path d="M0 0 C0.99 0 1.98 0 3 0 C3.33 1.98 3.66 3.96 4 6 C2.68 5.67 1.36 5.34 0 5 C0 3.35 0 1.7 0 0 Z " fill="#F4F4F5" transform="translate(337,520)"/>
<path d="M0 0 C0.99 0 1.98 0 3 0 C3.33 1.98 3.66 3.96 4 6 C2.68 5.67 1.36 5.34 0 5 C0 3.35 0 1.7 0 0 Z " fill="#F4F4F5" transform="translate(211,520)"/>
<path d="M0 0 C1.98 0 3.96 0 6 0 C6 0.99 6 1.98 6 3 C5.236875 2.79375 4.47375 2.5875 3.6875 2.375 C0.78114056 1.66608797 0.78114056 1.66608797 -2 4 C-1.34 2.68 -0.68 1.36 0 0 Z " fill="#DBDBDC" transform="translate(179,277)"/>
<path d="M0 0 C1.98 0 3.96 0 6 0 C6 0.99 6 1.98 6 3 C5.236875 2.79375 4.47375 2.5875 3.6875 2.375 C0.78114056 1.66608797 0.78114056 1.66608797 -2 4 C-1.34 2.68 -0.68 1.36 0 0 Z " fill="#DBDBDC" transform="translate(207,175)"/>
<path d="M0 0 C1.98 0 3.96 0 6 0 C6 0.99 6 1.98 6 3 C5.236875 2.79375 4.47375 2.5875 3.6875 2.375 C0.78114056 1.66608797 0.78114056 1.66608797 -2 4 C-1.34 2.68 -0.68 1.36 0 0 Z " fill="#DBDBDC" transform="translate(529,141)"/>
<path d="M0 0 C0.99 0 1.98 0 3 0 C3.33 1.98 3.66 3.96 4 6 C2.68 5.67 1.36 5.34 0 5 C0 3.35 0 1.7 0 0 Z " fill="#F4F4F5" transform="translate(645,10)"/>
<path d="M0 0 C0.99 0 1.98 0 3 0 C3.33 1.98 3.66 3.96 4 6 C2.68 5.67 1.36 5.34 0 5 C0 3.35 0 1.7 0 0 Z " fill="#F4F4F5" transform="translate(575,10)"/>
<path d="M0 0 C0.99 0 1.98 0 3 0 C3.33 1.98 3.66 3.96 4 6 C2.68 5.67 1.36 5.34 0 5 C0 3.35 0 1.7 0 0 Z " fill="#F4F4F5" transform="translate(449,10)"/>
<path d="M0 0 C0.99 0 1.98 0 3 0 C3.33 1.98 3.66 3.96 4 6 C2.68 5.67 1.36 5.34 0 5 C0 3.35 0 1.7 0 0 Z " fill="#F4F4F5" transform="translate(323,10)"/>
<path d="M0 0 C0.99 0 1.98 0 3 0 C3.33 1.98 3.66 3.96 4 6 C2.68 5.67 1.36 5.34 0 5 C0 3.35 0 1.7 0 0 Z " fill="#F4F4F5" transform="translate(197,10)"/>
<path d="M0 0 C1.32 0 2.64 0 4 0 C4 1.32 4 2.64 4 4 C2.35 4 0.7 4 -1 4 C-0.67 2.68 -0.34 1.36 0 0 Z " fill="#1A1D22" transform="translate(95,594)"/>
<path d="M0 0 C1.65 0 3.3 0 5 0 C6.61949011 2.57213134 7.04408751 3.67669159 6.625 6.75 C6.41875 7.4925 6.2125 8.235 6 9 C5.67 9 5.34 9 5 9 C4.9175 8.071875 4.835 7.14375 4.75 6.1875 C4.29742448 2.91490121 4.29742448 2.91490121 1.9375 1.125 C1.298125 0.75375 0.65875 0.3825 0 0 Z " fill="#A9AAAB" transform="translate(179,587)"/>
<path d="M0 0 C1.32 0 2.64 0 4 0 C4 1.65 4 3.3 4 5 C2.68 4.67 1.36 4.34 0 4 C0 2.68 0 1.36 0 0 Z " fill="#262A2E" transform="translate(179,286)"/>
<path d="M0 0 C1.32 0 2.64 0 4 0 C4 1.65 4 3.3 4 5 C2.68 4.67 1.36 4.34 0 4 C0 2.68 0 1.36 0 0 Z " fill="#262A2E" transform="translate(207,184)"/>
<path d="M0 0 C1.32 0 2.64 0 4 0 C4 1.65 4 3.3 4 5 C2.68 4.67 1.36 4.34 0 4 C0 2.68 0 1.36 0 0 Z " fill="#262A2E" transform="translate(529,150)"/>
<path d="M0 0 C1.4540625 0.0309375 1.4540625 0.0309375 2.9375 0.0625 C0.9375 3.0625 0.9375 3.0625 -1.6875 3.75 C-2.863125 3.9046875 -2.863125 3.9046875 -4.0625 4.0625 C-4.0625 0.08290816 -4.0625 0.08290816 0 0 Z " fill="#E1E1E2" transform="translate(166.0625,480.9375)"/>
<path d="M0 0 C1.32 0 2.64 0 4 0 C3.67 1.65 3.34 3.3 3 5 C2.01 4.67 1.02 4.34 0 4 C0 2.68 0 1.36 0 0 Z " fill="#303438" transform="translate(207,389)"/>
<path d="M0 0 C1.4540625 0.0309375 1.4540625 0.0309375 2.9375 0.0625 C0.9375 3.0625 0.9375 3.0625 -1.6875 3.75 C-2.863125 3.9046875 -2.863125 3.9046875 -4.0625 4.0625 C-4.0625 0.08290816 -4.0625 0.08290816 0 0 Z " fill="#E1E1E2" transform="translate(376.0625,344.9375)"/>
<path d="M0 0 C1.32 0 2.64 0 4 0 C3.67 1.65 3.34 3.3 3 5 C2.01 4.67 1.02 4.34 0 4 C0 2.68 0 1.36 0 0 Z " fill="#303438" transform="translate(403,253)"/>
<path d="M0 0 C1.4540625 0.0309375 1.4540625 0.0309375 2.9375 0.0625 C0.9375 3.0625 0.9375 3.0625 -1.6875 3.75 C-2.863125 3.9046875 -2.863125 3.9046875 -4.0625 4.0625 C-4.0625 0.08290816 -4.0625 0.08290816 0 0 Z " fill="#E1E1E2" transform="translate(376.0625,242.9375)"/>
<path d="M0 0 C1.4540625 0.0309375 1.4540625 0.0309375 2.9375 0.0625 C0.9375 3.0625 0.9375 3.0625 -1.6875 3.75 C-2.863125 3.9046875 -2.863125 3.9046875 -4.0625 4.0625 C-4.0625 0.08290816 -4.0625 0.08290816 0 0 Z " fill="#E1E1E2" transform="translate(362.0625,242.9375)"/>
<path d="M0 0 C1.4540625 0.0309375 1.4540625 0.0309375 2.9375 0.0625 C0.9375 3.0625 0.9375 3.0625 -1.6875 3.75 C-2.863125 3.9046875 -2.863125 3.9046875 -4.0625 4.0625 C-4.0625 0.08290816 -4.0625 0.08290816 0 0 Z " fill="#E1E1E2" transform="translate(166.0625,174.9375)"/>
<path d="M0 0 C1.32 0 2.64 0 4 0 C3.67 1.65 3.34 3.3 3 5 C2.01 4.67 1.02 4.34 0 4 C0 2.68 0 1.36 0 0 Z " fill="#303438" transform="translate(207,83)"/>
<path d="M0 0 C1.4540625 0.0309375 1.4540625 0.0309375 2.9375 0.0625 C0.9375 3.0625 0.9375 3.0625 -1.6875 3.75 C-2.863125 3.9046875 -2.863125 3.9046875 -4.0625 4.0625 C-4.0625 0.08290816 -4.0625 0.08290816 0 0 Z " fill="#E1E1E2" transform="translate(194.0625,72.9375)"/>
<path d="M0 0 C1.4540625 0.0309375 1.4540625 0.0309375 2.9375 0.0625 C0.9375 3.0625 0.9375 3.0625 -1.6875 3.75 C-2.863125 3.9046875 -2.863125 3.9046875 -4.0625 4.0625 C-4.0625 0.08290816 -4.0625 0.08290816 0 0 Z " fill="#E1E1E2" transform="translate(166.0625,72.9375)"/>
<path d="M0 0 C1.32 0 2.64 0 4 0 C3.67 1.65 3.34 3.3 3 5 C2.01 4.67 1.02 4.34 0 4 C0 2.68 0 1.36 0 0 Z " fill="#303438" transform="translate(403,49)"/>
<path d="M0 0 C1.4540625 0.0309375 1.4540625 0.0309375 2.9375 0.0625 C0.9375 3.0625 0.9375 3.0625 -1.6875 3.75 C-2.863125 3.9046875 -2.863125 3.9046875 -4.0625 4.0625 C-4.0625 0.08290816 -4.0625 0.08290816 0 0 Z " fill="#E1E1E2" transform="translate(376.0625,38.9375)"/>
<path d="M0 0 C1.4540625 0.0309375 1.4540625 0.0309375 2.9375 0.0625 C0.9375 3.0625 0.9375 3.0625 -1.6875 3.75 C-2.863125 3.9046875 -2.863125 3.9046875 -4.0625 4.0625 C-4.0625 0.08290816 -4.0625 0.08290816 0 0 Z " fill="#E1E1E2" transform="translate(362.0625,38.9375)"/>
<path d="M0 0 C1.4606285 2.64738916 2 3.89448334 2 7 C0.68 7 -0.64 7 -2 7 C-1.34 4.69 -0.68 2.38 0 0 Z " fill="#5B5E61" transform="translate(517,9)"/>
<path d="M0 0 C-2 3 -2 3 -4.625 3.6875 C-5.800625 3.8421875 -5.800625 3.8421875 -7 4 C-7 3.01 -7 2.02 -7 1 C-4.53721199 -0.231394 -2.7204945 -0.07159196 0 0 Z " fill="#E9EAEA" transform="translate(645,447)"/>
<path d="M0 0 C-2 3 -2 3 -4.625 3.6875 C-5.800625 3.8421875 -5.800625 3.8421875 -7 4 C-7 3.01 -7 2.02 -7 1 C-4.53721199 -0.231394 -2.7204945 -0.07159196 0 0 Z " fill="#E9EAEA" transform="translate(421,345)"/>
<path d="M0 0 C-2 3 -2 3 -4.625 3.6875 C-5.800625 3.8421875 -5.800625 3.8421875 -7 4 C-7 3.01 -7 2.02 -7 1 C-4.53721199 -0.231394 -2.7204945 -0.07159196 0 0 Z " fill="#E9EAEA" transform="translate(155,277)"/>
<path d="M0 0 C-2 3 -2 3 -4.625 3.6875 C-5.800625 3.8421875 -5.800625 3.8421875 -7 4 C-7 3.01 -7 2.02 -7 1 C-4.53721199 -0.231394 -2.7204945 -0.07159196 0 0 Z " fill="#E9EAEA" transform="translate(575,141)"/>
</svg>
